<svg width="96" height="96" viewBox="0 0 96 96" fill="none" xmlns="http://www.w3.org/2000/svg">
<rect width="96" height="96" fill="#F8F7F4"/>
<g clip-path="url(#clip0_18_29)">
<path d="M52.16 38.08L44.8 44.16L41.6 40.64L39.36 36.8L38.72 33.6L39.36 30.4L41.6 27.2L46.08 25.92L49.92 26.88L52.16 29.12L53.44 32.96L52.16 38.08Z" fill="#FF6B57"/>
<path d="M40 48L44.48 44.48L57.28 59.52L54.4 62.72L48.64 65.28L40.96 64.32L36.48 60.16L35.84 55.68L36.48 51.84L40 48Z" fill="#3B82F6"/>
<path d="M73.0397 35.3794L73.3106 46.2145C73.3106 48.4899 73.0036 50.4944 72.3896 52.228C71.8118 53.9977 71.0894 55.316 70.2226 56.1828C68.4529 58.0247 66.8999 59.0721 65.5635 59.325L64.6426 59.5417C64.1008 59.5417 63.8299 59.3791 63.8299 59.0541L64.1008 58.2414C66.7373 54.5936 68.0556 45.6366 68.0556 31.3705C68.0556 30.0702 68.0375 29.0951 68.0014 28.445C67.243 28.445 66.4845 28.4992 65.7261 28.6075H65.6719C65.2746 28.6075 65.076 28.4089 65.076 28.0116L65.2385 25.9529C65.2746 25.6279 65.5274 25.4653 65.9969 25.4653H67.9472V21.8356L68.0556 16.6889C68.0556 16.4361 68.0917 16.1652 68.164 15.8763C68.2723 15.5512 68.6696 15.0817 69.3558 14.4677C70.042 13.8176 71.0533 13.2398 72.3896 12.7341C73.726 12.1924 74.8636 11.9215 75.8027 11.9215C76.7778 11.9215 77.2654 12.2104 77.2654 12.7883C77.2654 13.005 77.1029 13.1856 76.7778 13.3301C75.7304 13.6551 74.8636 14.5941 74.1774 16.1472C73.5273 17.6641 73.2023 20.2645 73.2023 23.9484V25.4653C75.0442 25.3931 76.2541 25.3028 76.832 25.1945C77.0848 25.1945 77.2112 25.4112 77.2112 25.8446C77.2112 26.278 77.0126 26.8197 76.6153 27.4698C76.2541 28.0838 75.7846 28.4089 75.2068 28.445C74.665 28.445 73.9788 28.4269 73.1481 28.3908C73.0759 31.1357 73.0397 33.4652 73.0397 35.3794Z" fill="#2B2B2B"/>
<path d="M26.9014 59.937L27.1722 70.7721C27.1722 73.0474 26.8653 75.0519 26.2513 76.7855C25.6734 78.5553 24.9511 79.8735 24.0842 80.7403C22.3145 82.5823 20.7615 83.6297 19.4252 83.8825L18.5042 84.0992C17.9624 84.0992 17.6916 83.9367 17.6916 83.6116L17.9624 82.799C20.599 79.1512 21.9172 70.1942 21.9172 55.928C21.9172 54.6278 21.8992 53.6526 21.8631 53.0025C21.1046 53.0025 20.3461 53.0567 19.5877 53.1651H19.5335C19.1362 53.1651 18.9376 52.9664 18.9376 52.5691L19.1001 50.5105C19.1362 50.1854 19.389 50.0229 19.8586 50.0229H21.8089V46.3931L21.9172 41.2465C21.9172 40.9937 21.9534 40.7228 22.0256 40.4338C22.1339 40.1088 22.5312 39.6393 23.2174 39.0253C23.9037 38.3752 24.9149 37.7973 26.2513 37.2917C27.5876 36.7499 28.7253 36.479 29.6643 36.479C30.6395 36.479 31.127 36.768 31.127 37.3459C31.127 37.5626 30.9645 37.7431 30.6395 37.8876C29.5921 38.2127 28.7253 39.1517 28.0391 40.7047C27.3889 42.2216 27.0639 44.8221 27.0639 48.506V50.0229C28.9059 49.9507 30.1158 49.8604 30.6936 49.752C30.9465 49.752 31.0729 49.9687 31.0729 50.4021C31.0729 50.8355 30.8742 51.3773 30.4769 52.0274C30.1158 52.6414 29.6463 52.9664 29.0684 53.0025C28.5266 53.0025 27.8404 52.9845 27.0097 52.9484C26.9375 55.6933 26.9014 58.0228 26.9014 59.937Z" fill="#2B2B2B"/>
<path d="M46.1725 65.9095C44.0948 65.9095 42.2158 65.4477 40.5357 64.5243C38.8684 63.588 37.5409 62.3375 36.5533 60.7728C35.5786 59.1952 35.0912 57.4446 35.0912 55.5207C35.0912 54.3408 35.3093 53.2378 35.7453 52.2117C36.1814 51.1728 36.8932 50.1211 37.8808 49.0566C38.8684 47.9793 40.1958 46.7993 41.8631 45.5167L47.6347 41.2073C49.4944 39.758 50.8154 38.4498 51.5978 37.2827C52.393 36.1156 52.7906 34.833 52.7906 33.435C52.7906 31.4727 52.1685 29.8567 50.9244 28.5869C49.6932 27.3044 48.1349 26.6631 46.2495 26.6631C44.9669 26.6631 43.7806 26.9901 42.6904 27.6442C41.613 28.2983 40.7409 29.1641 40.074 30.2414C39.4199 31.3188 39.0928 32.4859 39.0928 33.7428C39.0928 34.5893 39.2788 35.423 39.6507 36.2438C40.0227 37.0518 40.5934 37.9753 41.3629 39.0141C42.1325 40.0402 43.1201 41.3099 44.3257 42.8234L62.1789 65.3708H60.6398L43.4022 43.5929C42.1966 42.0795 41.1834 40.7777 40.3625 39.6875C39.5417 38.5845 38.9197 37.5713 38.4964 36.6478C38.0732 35.7116 37.8615 34.7432 37.8615 33.7428C37.8615 32.2551 38.2463 30.8827 39.0159 29.6258C39.7854 28.3561 40.805 27.3428 42.0748 26.5861C43.3445 25.8166 44.7361 25.4318 46.2495 25.4318C47.7373 25.4318 49.0647 25.7781 50.2319 26.4707C51.4118 27.1633 52.3353 28.1124 53.0022 29.318C53.6819 30.5236 54.0218 31.8959 54.0218 33.435C54.0218 35.0126 53.5858 36.4747 52.7136 37.8214C51.8415 39.1681 50.405 40.6302 48.4042 42.2077L42.6327 46.5171C40.2856 48.3255 38.6439 49.8839 37.7076 51.1921C36.7842 52.5003 36.3225 53.9432 36.3225 55.5207C36.3225 57.2137 36.7585 58.7464 37.6307 60.1187C38.5028 61.491 39.6828 62.5876 41.1706 63.4085C42.6583 64.2293 44.3257 64.6525 46.1725 64.6782C48.0964 64.6397 49.8278 64.2806 51.3669 63.6008C52.906 62.9211 54.2463 61.9848 55.3877 60.792C56.5421 59.5864 57.4912 58.1628 58.235 56.5211C58.9917 54.8666 59.5368 53.0454 59.8703 51.0574L61.1016 51.2113C60.922 52.3143 60.6527 53.4109 60.2935 54.5011C59.9473 55.5913 59.5304 56.6301 59.043 57.6177C58.5685 58.6053 58.0491 59.4966 57.4847 60.2918C57.3437 60.497 57.1962 60.6958 57.0423 60.8882C56.8883 61.0806 56.728 61.2666 56.5613 61.4461C55.2531 62.8313 53.6755 63.9215 51.8286 64.7167C49.9818 65.5119 48.0964 65.9095 46.1725 65.9095Z" fill="#2B2B2B"/>
</g>
<defs>
<clipPath id="clip0_18_29">
<rect width="60.2776" height="72.9284" fill="white" transform="translate(17.92 11.52)"/>
</clipPath>
</defs>
</svg>
