<svg width="500" height="500" viewBox="0 0 500 500" fill="none" xmlns="http://www.w3.org/2000/svg">
<g clip-path="url(#clip0_18_50)">
<path d="M500 0H0V500H500V0Z" fill="#FF71B0"/>
<path fill-rule="evenodd" clip-rule="evenodd" d="M500 500C471.01 369.431 350.694 467.014 352.431 368.056C354.167 269.097 161.458 368.056 161.458 154.514C161.458 -59.0278 26.066 154.667 0 0V500H500Z" fill="#00A7FF"/>
<path fill-rule="evenodd" clip-rule="evenodd" d="M122.252 144.512C123.006 145.258 226.103 128.239 285.823 117.056C289.122 116.414 292.738 116.131 296.097 115.008C296.869 114.751 305.566 109.627 306.295 109.267C306.886 108.984 307.46 108.658 308.017 108.29C332.92 95.1274 358.936 94.6646 386.067 105.642C408.844 114.545 432.967 136.149 432.05 161.54C432.015 162.602 434.775 167.247 434.62 167.829C433.841 170.717 434.766 176.27 432.932 178.438C431.81 179.767 421.484 185.071 419.281 185.037C419.281 185.037 391.902 175.816 378.68 171.737C370.282 168.609 362.407 165.37 353.589 165.696C353.589 165.696 342.509 162.302 356.023 180.563C358.482 183.923 366.923 189.424 361.421 191.069C368.705 199.253 367.985 211.199 367.985 211.199C365.98 233.333 367.154 257.55 369.896 279.462C369.708 286.266 359.33 289.797 354.112 293.404C355.988 301.922 360.376 340.261 344.514 341.487C344.051 341.469 333.314 344.966 330.743 345.66C327.504 346.44 321.257 349.49 317.941 349.525C317.941 349.525 294.666 343.38 285.728 334.246C279.379 327.45 270.775 313.448 267.493 304.69C269.73 297.08 264.597 281.716 256.104 265.494C255.145 265.451 242.925 253.077 246.421 258.124C230.405 261.715 205.931 296.326 225.546 294.69C225.546 294.69 237.912 294.484 245.084 295.547L261.375 303.053C267.03 320.595 277.999 335.214 293.887 345.12C294.298 357.965 290.245 380.554 280.853 390.323C278.119 393.528 271.563 397.958 267.45 398.001C267.45 398.001 253.062 393.288 251.04 392.543C242.676 389.449 241.785 382.457 236.335 375.627C221.844 357.503 204.457 347.108 181.603 343.663C173.196 342.198 164.636 342.335 156.263 340.51C129.818 335.214 100.768 313.002 85.9264 291.039C82.85 285.692 72.8325 270.224 72.8325 264.826C72.8325 259.084 52.3689 264.388 33.6707 248.21C26.5324 247.73 24.3044 228.894 25.3499 210.847C25.7784 203.581 30.5343 184.865 32.1796 179.895C38.7866 161.034 52.5832 138.745 69.5418 127.571C78.4796 121.658 97.4264 120.544 107.872 124.34C114.796 126.825 118.396 138.728 122.252 144.512ZM410.061 195.62L401.371 187.153L382.485 206.528L391.174 215.004L410.061 195.62Z" fill="white"/>
<path fill-rule="evenodd" clip-rule="evenodd" d="M346.146 310.874C345.836 304.641 343.612 298.675 340.48 293.272C330.716 275.397 322.626 256.571 317.396 236.9C314.556 226.734 313.792 215.923 309.04 206.291C298.547 183.103 277.879 166.635 256.699 153.667C268.991 155.136 300.064 171.165 303.723 174.813C314.779 185.022 322.53 198.753 326.168 213.411C328.682 223.169 330.246 233.239 333.38 242.913L342.206 266.305L342.198 266.288C342.198 279.841 346.541 296.045 346.146 310.874L346.867 316.123C347.06 320.167 345.383 323.825 343.57 327.343L342.711 329.866L342.386 329.854L343.57 327.343L345.178 322.615C345.548 320.034 345.919 317.454 346.289 314.874L346.146 310.874Z" fill="black"/>
<path fill-rule="evenodd" clip-rule="evenodd" d="M72.3672 268.62L70.4438 268.845L73 268.319L72.3672 268.62Z" fill="black"/>
<path fill-rule="evenodd" clip-rule="evenodd" d="M72.3672 235.338L73.7794 236.012L62.5641 234.19L72.3672 235.338Z" fill="black"/>
<path fill-rule="evenodd" clip-rule="evenodd" d="M479.858 179.089C480.629 177.461 482.429 180.229 481.906 183.159C481.417 184.83 468.529 210.821 462.805 216.228C460.5 218.414 458.229 219.399 456.138 219.202C454.638 219.056 453.164 218.328 451.793 216.811C447.003 211.515 439.436 207.831 431.124 205.551C426.128 204.189 420.867 203.34 415.742 202.98C416.222 202.029 416.616 201.172 416.916 200.418C417.028 200.135 417.13 199.835 417.233 199.527C422.195 199.938 427.251 200.787 432.067 202.106C441.09 204.574 449.248 208.67 454.441 214.412C455.101 215.14 455.761 215.577 456.481 215.646C457.732 215.766 458.974 214.934 460.354 213.632C466.224 208.088 472.874 193.948 479.858 179.089Z" fill="black"/>
<path fill-rule="evenodd" clip-rule="evenodd" d="M409.623 199.237C408.97 200.584 408.292 201.819 407.695 202.841C402.841 203.013 398.352 203.674 394.644 204.807C393.701 205.095 392.701 204.563 392.413 203.619C392.125 202.676 392.657 201.676 393.601 201.387C398.079 200.019 403.641 199.29 409.623 199.237Z" fill="black"/>
<path fill-rule="evenodd" clip-rule="evenodd" d="M357.462 89C357.934 89 358.405 89 358.876 89.0172C379.451 89.0686 399.572 96.9523 415.202 110.235C425.331 118.95 434.543 129.499 438.836 142.353C442.838 154.435 442.778 167.795 438.674 179.903C436.643 186.142 431.613 191.609 425.048 193.057C422.718 193.648 420.352 193.983 417.987 194.094C417.927 189.801 416.256 185.148 411.106 183.434C404.936 181.377 397.721 186.15 394.687 188.49C392.845 187.556 391.062 186.519 389.357 185.422C380.831 179.826 370.702 177.067 360.556 176.116C367.471 184.745 376.452 193.648 376.64 205.311H362.938C366.597 226.495 374.652 254.139 366.674 274.157L366.88 275.931C366.708 282.444 360.419 285.76 355.586 289.051L354.326 290.285L353.812 289.282L354.197 290.036L355.586 289.051L362.278 282.495L366.674 274.157C363.932 252.571 360.813 230.796 362.921 209.082C363.204 199.93 358.362 191.66 353.238 184.522C339.809 166.244 322.354 151.505 305.404 136.508C315.216 138.316 344.154 157.169 350.016 161.771C359.527 161.368 369.339 161.196 378.371 164.556C392.125 168.797 403.437 180.872 418.733 179.938C425.246 180.04 425.897 172.277 427.422 167.649C430.241 140.913 409.512 117.424 385.775 108.144C358.936 97.3037 328.292 104.768 303.398 117.93C299.097 120.775 293.801 120.964 288.891 122C229.162 133.183 169.143 143.501 110.76 160.46C95.0441 170.974 83.407 187.273 78.4796 205.483L78.411 205.663C75.626 213.555 74.4949 221.91 74.7862 230.265C74.8291 232.245 74.9062 234.224 75.0176 236.212L80.1335 265.151C81.1618 268.159 82.3615 271.107 83.7669 273.96C85.6607 279.839 89.157 284.955 92.4047 290.19L101.017 301.408C115.43 318.126 134.574 330.972 156.34 335.265C164.636 337.193 173.282 336.456 181.68 337.827C204.543 341.366 226.215 353.363 240.705 371.487C246.155 378.317 252.42 385.13 260.783 388.215C266.67 390.383 274.16 389.714 278.436 384.71C287.751 375.035 289.208 360.673 288.882 347.819C272.909 337.921 262.583 321.211 256.918 303.67C252.908 302.684 248.906 301.793 244.904 300.902C228.511 298.46 211.373 302.445 195.571 296.403C184.268 292.273 175.484 283.558 168.663 273.934C177.438 278.056 186.299 282.161 195.614 284.937C199.058 285.726 202.598 286.506 206.034 287.208C204.817 276.368 200.412 259.349 194.971 252.64C203.215 258.184 209.23 266.471 213.352 275.468C221.193 265.545 231.69 257.25 244.159 254.088C239.18 246.744 233.361 239.871 226.917 233.727C213.969 239.289 183.677 236.144 182.631 235.115C184.293 234.713 206.454 229.228 215.434 225.646C207.559 220.865 179.769 207.719 174.062 205.534C180.069 205.971 204.731 208.808 210.85 210.667C232.093 216.863 250.706 232.802 258.709 253.625C263.577 270.01 265.136 287.294 271.144 303.43C274.408 312.094 279.07 320.389 285.506 327.167C296.946 338.864 314.564 344.288 330.546 340.467C335.85 339.027 339.338 334.519 342.2 330.115V349.524H342.817L334.985 353.749C324.719 357.151 313.682 355.6 303.338 353.226C302.773 366.209 300.211 379.731 292.198 390.306C286.414 398.138 277.519 404.325 267.536 404.522C260.201 404.985 253.328 401.6 247.612 397.427C236.215 389.337 229.077 376.783 218.142 368.094C205.391 358.025 189.666 351.975 173.522 350.681C164.198 350.424 154.875 349.541 145.946 346.979C141.258 345.634 136.691 343.963 132.278 341.983L132.064 341.889C101.634 328.35 78.034 300.962 66.9539 269.684L66.911 269.667L65.8741 269.607C55.0597 268.947 42.6684 265.854 37.8096 261.877C26.3268 253.797 20.7995 239.854 19.2142 226.358L19 205.311L19.0171 205.054C20.8852 183.511 29.1803 162.525 41.7858 145.035C51.3235 131.727 63.7832 119.995 79.3537 114.434C89.3455 110.98 101.197 110.62 110.323 116.585C119.201 122.129 125.148 131.238 129.167 140.784C182.297 127.622 236.215 117.51 290.125 108.024C294.006 107.398 297.4 105.127 300.982 103.645C318.643 95.5127 337.641 88.9914 357.222 89H357.462ZM248.255 266.83C249.395 274.791 253.731 289.822 253.731 289.822C242.556 285.692 219.085 287.131 219.085 287.131C224.946 276.454 241.896 264.782 248.255 266.83ZM62.9863 253.659C60.8611 253.685 57.3048 253.557 53.9628 252.708C45.025 250.686 37.5525 243.599 34.5704 234.987C30.997 225.543 30.2429 215.483 31.4683 205.543L31.5026 205.311C32.0682 197.942 33.8078 190.658 36.0872 183.708C42.7027 164.847 53.5429 146.577 70.5958 135.394C79.6108 129.464 91.3079 125.959 101.857 129.833C108.772 132.224 112.74 138.805 116.604 144.589C114.188 144.743 111.789 144.983 109.458 145.12C86.312 157.315 70.1845 179.92 63.946 205.011L63.8689 205.311C61.3753 214.712 60.5355 223.89 60.9296 234.19C61.2124 241.628 62.0351 248.235 62.9863 253.659Z" fill="black"/>
<path fill-rule="evenodd" clip-rule="evenodd" d="M342.386 329.854L342.357 329.915L342.198 330.119V329.846L342.386 329.854Z" fill="black"/>
<path fill-rule="evenodd" clip-rule="evenodd" d="M342.206 266.305L353.815 289.28L342.478 267.026L342.206 266.305Z" fill="black"/>
<path fill-rule="evenodd" clip-rule="evenodd" d="M280.124 320.431C281.821 322.848 283.68 325.162 285.703 327.321C286.86 328.504 288.077 329.626 289.353 330.672C253.962 367.134 209.325 413.22 153.573 471.671C194.508 423.263 228.64 382.413 257.167 348.084L257.458 348.256L257.304 347.922C265.351 338.247 272.943 329.095 280.124 320.431Z" fill="black"/>
<mask id="mask0_18_50" style="mask-type:luminance" maskUnits="userSpaceOnUse" x="153" y="320" width="137" height="152">
<path d="M280.124 320.431C281.821 322.848 283.68 325.162 285.703 327.321C286.86 328.504 288.077 329.626 289.353 330.672C253.962 367.134 209.325 413.22 153.573 471.671C194.508 423.263 228.64 382.413 257.167 348.084L257.458 348.256L257.304 347.922C265.351 338.247 272.943 329.095 280.124 320.431Z" fill="white"/>
</mask>
<g mask="url(#mask0_18_50)">
<path d="M280.124 320.429C281.823 322.851 283.683 325.158 285.704 327.323C286.861 328.505 288.081 329.623 289.355 330.673C253.96 367.131 209.326 413.218 153.57 471.674C194.509 423.265 228.637 382.411 257.168 348.086L257.455 348.256L257.305 347.922C265.346 338.247 272.943 329.092 280.124 320.429ZM326.848 264.088C337.97 250.726 347.51 239.35 355.73 229.741C391.33 188.125 402.167 179.634 409.317 186.561C418.387 195.347 404.808 211.502 335.5 283.124C332.369 276.899 329.468 270.547 326.848 264.088ZM403.685 191.746H403.713C404.098 191.749 404.406 191.851 404.623 192.061C405.978 193.371 403.266 198.381 398.57 203.243C394.664 207.288 390.606 209.964 388.571 209.995H388.544C388.146 209.996 387.828 209.894 387.605 209.68C386.25 208.37 388.962 203.36 393.658 198.498C397.584 194.434 401.66 191.752 403.685 191.746Z" fill="black"/>
</g>
<path fill-rule="evenodd" clip-rule="evenodd" d="M376.735 205.945C396.153 185.019 403.822 181.24 409.315 186.561C416.171 193.194 410.095 204.034 376.855 239.803C377.78 252.742 379.485 265.648 380.771 278.536C380.428 290.49 369.365 297.962 359.87 303.061C362.869 315.727 360.864 329.986 352.741 340.483C349.913 343.971 346.691 347.245 342.817 349.524H342.2V330.115L342.355 329.917L342.389 329.849L342.714 329.866C344.728 325.53 347.462 321.091 347.222 316.069C347.359 308.974 345.414 302.024 342.2 295.726V276.196C340.024 278.442 337.796 280.755 335.499 283.12C332.371 276.899 329.466 270.549 326.844 264.088C330.246 260.009 333.494 256.119 336.605 252.399C338.301 257.087 340.178 261.723 342.2 266.29L342.877 267.798L354.326 290.284C359.313 286.531 366.803 283.249 367 276.188C366.631 269.607 366.349 260.643 366.057 251.294C365.449 251.937 364.823 252.597 364.189 253.265C363.049 242.879 362.235 232.467 362.372 222.03C363.212 221.07 364.026 220.127 364.832 219.21C364.378 211.481 363.778 206.057 362.938 205.311H376.64L376.735 205.945Z" fill="black"/>
<mask id="mask1_18_50" style="mask-type:luminance" maskUnits="userSpaceOnUse" x="326" y="184" width="86" height="166">
<path d="M376.735 205.945C396.153 185.019 403.822 181.24 409.315 186.561C416.171 193.194 410.095 204.034 376.855 239.803C377.78 252.742 379.485 265.648 380.771 278.536C380.428 290.49 369.365 297.962 359.87 303.061C362.869 315.727 360.864 329.986 352.741 340.483C349.913 343.971 346.691 347.245 342.817 349.524H342.2V330.115L342.355 329.917L342.389 329.849L342.714 329.866C344.728 325.53 347.462 321.091 347.222 316.069C347.359 308.974 345.414 302.024 342.2 295.726V276.196C340.024 278.442 337.796 280.755 335.499 283.12C332.371 276.899 329.466 270.549 326.844 264.088C330.246 260.009 333.494 256.119 336.605 252.399C338.301 257.087 340.178 261.723 342.2 266.29L342.877 267.798L354.326 290.284C359.313 286.531 366.803 283.249 367 276.188C366.631 269.607 366.349 260.643 366.057 251.294C365.449 251.937 364.823 252.597 364.189 253.265C363.049 242.879 362.235 232.467 362.372 222.03C363.212 221.07 364.026 220.127 364.832 219.21C364.378 211.481 363.778 206.057 362.938 205.311H376.64L376.735 205.945Z" fill="white"/>
</mask>
<g mask="url(#mask1_18_50)">
<path d="M280.124 320.429C281.824 322.851 283.683 325.158 285.704 327.323C286.861 328.505 288.081 329.623 289.355 330.673C253.96 367.131 209.326 413.218 153.57 471.674C194.509 423.265 228.637 382.411 257.168 348.086L257.455 348.256L257.305 347.922C265.346 338.247 272.943 329.092 280.124 320.429ZM326.849 264.088C337.97 250.726 347.51 239.35 355.73 229.741C391.33 188.125 402.167 179.634 409.317 186.561C418.387 195.347 404.808 211.502 335.5 283.124C332.369 276.899 329.468 270.547 326.849 264.088ZM403.685 191.746H403.713C404.098 191.749 404.406 191.851 404.623 192.061C405.978 193.371 403.266 198.381 398.57 203.243C394.664 207.288 390.606 209.964 388.571 209.995H388.544C388.146 209.996 387.828 209.894 387.605 209.68C386.25 208.37 388.962 203.36 393.658 198.498C397.584 194.434 401.66 191.752 403.685 191.746Z" fill="black"/>
<path d="M404.623 192.062C405.978 193.371 403.266 198.382 398.57 203.243C393.874 208.105 388.961 210.99 387.605 209.68C386.25 208.371 388.962 203.36 393.658 198.499C398.354 193.637 403.267 190.752 404.623 192.062Z" fill="#FF71B0"/>
</g>
</g>
<defs>
<clipPath id="clip0_18_50">
<rect width="500" height="500" fill="white"/>
</clipPath>
</defs>
</svg>
