<?xml version="1.0" encoding="UTF-8" standalone="no"?>
<!DOCTYPE svg PUBLIC "-//W3C//DTD SVG 1.1//EN" "http://www.w3.org/Graphics/SVG/1.1/DTD/svg11.dtd">
<svg width="100%" height="100%" viewBox="0 0 109 45" version="1.1" xmlns="http://www.w3.org/2000/svg" xmlns:xlink="http://www.w3.org/1999/xlink" xml:space="preserve" xmlns:serif="http://www.serif.com/" style="fill-rule:evenodd;clip-rule:evenodd;stroke-linejoin:round;stroke-miterlimit:2;">
    <g transform="matrix(1,0,0,1,-17.8755,-16.2637)">
        <g transform="matrix(0.104302,0,0,0.104302,66.3085,35.7759)">
            <g transform="matrix(9.58754,0,0,9.58754,-635.735,-343.003)">
                <path d="M58.263,22.742C58.351,22.829 70.382,20.843 77.351,19.538C77.736,19.463 78.158,19.43 78.55,19.299C78.64,19.269 79.655,18.671 79.74,18.629C79.809,18.596 79.876,18.558 79.941,18.515C82.847,16.979 85.883,16.925 89.049,18.206C91.707,19.245 94.522,21.766 94.415,24.729C94.411,24.853 94.733,25.395 94.715,25.463C94.624,25.8 94.732,26.448 94.518,26.701C94.387,26.856 93.182,27.475 92.925,27.471C92.925,27.471 89.73,26.395 88.187,25.919C87.207,25.554 86.288,25.176 85.259,25.214C85.259,25.214 83.966,24.818 85.543,26.949C85.83,27.341 86.815,27.983 86.173,28.175C87.023,29.13 86.939,30.524 86.939,30.524C86.705,33.107 86.842,35.933 87.162,38.49C87.14,39.284 85.929,39.696 85.32,40.117C85.539,41.111 86.051,45.585 84.2,45.728C84.146,45.726 82.893,46.134 82.593,46.215C82.215,46.306 81.486,46.662 81.099,46.666C81.099,46.666 78.383,45.949 77.34,44.883C76.599,44.09 75.595,42.456 75.212,41.434C75.473,40.546 74.874,38.753 73.883,36.86C73.771,36.855 72.345,35.411 72.753,36C70.884,36.419 68.028,40.458 70.317,40.267C70.317,40.267 71.76,40.243 72.597,40.367L74.498,41.243C75.158,43.29 76.438,44.996 78.292,46.152C78.34,47.651 77.867,50.287 76.771,51.427C76.452,51.801 75.687,52.318 75.207,52.323C75.207,52.323 73.528,51.773 73.292,51.686C72.316,51.325 72.212,50.509 71.576,49.712C69.885,47.597 67.856,46.384 65.189,45.982C64.208,45.811 63.209,45.827 62.232,45.614C59.146,44.996 55.756,42.404 54.024,39.841C53.665,39.217 55.425,35.902 55.425,35.272C55.425,34.602 54.567,33.257 54.106,32.9C53.96,32.787 52.305,30.921 52.541,30.047C52.683,29.522 52.942,28.583 53.171,28.088C51.733,30.838 49.244,32.764 47.479,30.46C46.963,29.785 47.56,27.451 47.752,26.871C48.523,24.67 50.133,22.069 52.112,20.765C53.155,20.075 55.366,19.945 56.585,20.388C57.393,20.678 57.813,22.067 58.263,22.742ZM91.849,28.706L90.835,27.718L88.631,29.979L89.645,30.968L91.849,28.706Z" style="fill:white;"/>
            </g>
            <g transform="matrix(1,0,0,1,-481.961,-213.417)">
                <path d="M330.127,226.954C322.973,226.561 315.956,224.355 310.349,219.762C297.5,210.727 291.318,195.123 289.546,180.024C285.843,147.929 296.059,115.032 314.795,89.04C325.467,74.148 339.411,61.028 356.825,54.799C368.004,50.942 381.272,50.532 391.476,57.205C401.413,63.41 408.062,73.6 412.558,84.287C472.007,69.557 532.328,58.24 592.645,47.631C596.99,46.932 600.78,44.393 604.791,42.731C625.107,33.379 646.997,25.93 669.565,26.361C692.589,26.428 715.099,35.246 732.584,50.103C743.917,59.852 754.22,71.659 759.022,86.039C763.504,99.555 763.438,114.503 758.84,128.055C756.568,135.029 750.949,141.151 743.601,142.766C740.99,143.432 738.349,143.806 735.704,143.925C735.63,139.12 733.762,133.921 728,132C721.099,129.7 713.022,135.043 709.63,137.66C707.573,136.608 705.58,135.455 703.666,134.223C694.125,127.964 682.8,124.877 671.449,123.812C679.611,133.996 690.346,144.532 689.761,158.643C687.172,185.344 691.428,211.912 694.059,238.401C693.676,251.778 681.299,260.14 670.676,265.839C674.037,280.014 671.788,295.968 662.702,307.715C657.435,314.192 650.969,320.026 642.838,322.557C631.348,326.356 618.997,324.622 607.429,321.972C606.799,336.493 603.933,351.624 594.96,363.455C588.492,372.217 578.541,379.136 567.368,379.359C559.162,379.881 551.475,376.093 545.08,371.42C532.329,362.371 524.343,348.328 512.105,338.603C497.839,327.34 480.254,320.571 462.188,319.117C451.752,318.835 441.321,317.846 431.337,314.978C389.806,303.064 357.115,268.578 342.909,228.374C348.852,227.815 353.579,226.175 357.091,223.456C357.258,223.327 357.422,223.195 357.583,223.061C358.752,226.558 360.135,229.977 361.769,233.288C363.884,239.861 367.799,245.582 371.43,251.442C388.142,276.096 413.393,296.045 442.962,301.874C452.242,304.03 461.919,303.205 471.316,304.74C496.892,308.696 521.145,322.119 537.357,342.401C543.454,350.042 550.456,357.66 559.814,361.118C566.406,363.543 574.782,362.796 579.564,357.193C589.988,346.373 591.615,330.302 591.254,315.917C573.38,304.847 561.827,286.146 555.497,266.525C551.006,265.426 546.528,264.427 542.05,263.427C523.708,260.698 504.536,265.15 486.851,258.394C474.205,253.773 464.385,244.019 456.749,233.258C466.568,237.864 476.485,242.457 486.906,245.567C490.762,246.451 494.717,247.32 498.56,248.105C497.196,235.977 492.274,216.939 486.18,209.43C495.41,215.631 502.134,224.902 506.748,234.968C515.518,223.87 527.264,214.585 541.213,211.053C535.642,202.835 529.135,195.149 521.931,188.266C507.444,194.496 473.55,190.977 472.382,189.826C474.238,189.369 499.033,183.236 509.082,179.231C500.271,173.881 469.18,159.176 462.787,156.724C469.516,157.212 497.105,160.386 503.953,162.473C527.717,169.403 548.539,187.234 557.494,210.532C562.939,228.861 564.689,248.203 571.409,266.256C575.062,275.949 580.274,285.226 587.474,292.817C600.274,305.896 619.984,311.97 637.869,307.695C643.902,306.059 647.833,300.875 651.084,295.886C653.443,291.02 656.397,286.072 656.13,280.456C656.306,271.448 653.482,262.65 648.984,254.89C638.059,234.891 629.008,213.828 623.157,191.819C619.979,180.446 619.125,168.35 613.808,157.573C602.068,131.63 578.944,113.206 555.248,98.697C569,100.34 603.765,118.274 607.859,122.355C620.229,133.777 628.901,149.14 632.971,165.539C635.784,176.457 637.534,187.724 641.04,198.547C646.598,216.962 654.863,234.5 664.333,251.267C669.828,247.181 678.305,243.493 678.518,235.489C675.412,210.681 671.67,185.658 674.095,160.695C674.404,150.458 668.994,141.208 663.253,133.215C648.23,112.77 628.702,96.275 609.742,79.5C620.72,81.524 653.092,102.614 659.655,107.768C670.293,107.316 681.268,107.12 691.374,110.879C706.764,115.628 719.42,129.131 736.537,128.091C743.82,128.201 744.545,119.521 746.256,114.34C749.414,84.432 726.22,58.145 699.659,47.764C669.629,35.639 635.346,43.984 607.492,58.713C602.68,61.897 596.754,62.106 591.26,63.265C524.442,75.777 457.289,87.326 391.963,106.296C366.543,123.314 350.653,153.862 351.721,184.401C351.769,186.608 351.851,188.826 351.975,191.05C348.179,189.542 343.536,188.788 338.045,188.788L336.211,188.788C333.997,148.971 354.767,107.969 390.513,89.133C393.116,88.977 395.804,88.709 398.506,88.539C394.185,82.067 389.741,74.704 382.006,72.032C370.206,67.698 357.117,71.616 347.027,78.252C327.953,90.765 315.822,111.206 308.426,132.309C302.374,150.705 299.747,171.254 306.72,189.676C310.063,199.311 318.421,207.247 328.421,209.506L328.561,209.79C329.081,209.85 329.603,209.897 330.127,209.932L330.127,226.954ZM515.332,248.222C527.469,247.665 539.725,248.706 551.662,251.104C549.676,241.787 547.675,232.372 545.688,223.056C532.713,227.059 522.576,237.032 515.332,248.222Z" style="fill-rule:nonzero;"/>
            </g>
            <g transform="matrix(1,0,0,1,-481.961,-213.417)">
                <path d="M734.853,150.003C740.408,150.464 746.065,151.42 751.452,152.892C761.546,155.652 770.676,160.234 776.487,166.658C777.227,167.476 777.964,167.961 778.77,168.039C780.163,168.173 781.557,167.248 783.099,165.79C791.013,158.31 800.196,136.876 809.773,116.896C814.806,106.396 819.928,96.28 824.983,88.671C828.498,83.381 832.017,79.283 835.43,76.977C838.051,75.208 840.654,74.442 843.185,74.761C846.78,75.214 850.434,77.943 853.756,84.043C865.501,105.607 876.422,115.74 886.917,119.404C897.233,123.006 907.008,120.255 916.427,116.446C923.037,113.772 929.478,110.56 935.797,108.389C942.465,106.098 949.012,104.967 955.482,106.558C956.553,106.821 957.21,107.906 956.946,108.978C956.683,110.049 955.598,110.706 954.526,110.442C948.794,109.033 943.004,110.142 937.097,112.171C930.842,114.32 924.469,117.508 917.926,120.154C907.615,124.325 896.892,127.124 885.598,123.181C874.484,119.3 862.681,108.793 850.244,85.957C847.682,81.254 845.184,78.894 842.405,78.703C839.617,78.51 836.846,80.468 833.922,83.596C827.157,90.833 820.207,104.381 813.38,118.625C803.555,139.124 793.966,161.023 785.847,168.697C783.265,171.137 780.72,172.244 778.387,172.021C776.71,171.859 775.061,171.044 773.521,169.342C768.165,163.421 759.7,159.294 750.397,156.751C744.813,155.224 738.921,154.272 733.188,153.875C733.724,152.804 734.162,151.845 734.5,151C734.624,150.69 734.743,150.356 734.853,150.003ZM726.342,149.681C725.612,151.188 724.853,152.57 724.185,153.713C718.755,153.906 713.732,154.645 709.584,155.913C708.529,156.235 707.41,155.64 707.087,154.584C706.765,153.529 707.36,152.41 708.416,152.087C713.427,150.556 719.649,149.74 726.342,149.681Z"/>
            </g>
            <g transform="matrix(1,0,0,1,-481.961,-213.417)">
                <path d="M581.456,285.275C583.357,287.984 585.437,290.565 587.699,292.988C588.993,294.31 590.358,295.561 591.783,296.736C552.183,337.526 502.245,389.089 439.864,454.491C485.668,400.33 523.851,354.621 555.772,316.218L556.093,316.408L555.925,316.034C564.922,305.21 573.421,294.967 581.456,285.275ZM644.643,209.16C647.486,216.996 650.758,224.675 654.361,232.203C650.86,235.833 647.21,239.611 643.411,243.537C639.908,236.572 636.663,229.466 633.732,222.239C637.531,217.675 641.165,213.318 644.643,209.16ZM673.48,175.183C707.436,136.086 718.521,128.255 726,135.5C734.552,143.785 725.105,157.926 675.507,210.134C674.23,198.511 673.325,186.861 673.48,175.183ZM719.503,141.309L719.581,141.31L719.73,141.301L720.001,141.32L720.02,141.324L720.036,141.325L720.22,141.364L720.271,141.382L720.309,141.391L720.418,141.434L720.547,141.5L720.565,141.514C720.632,141.553 720.692,141.601 720.748,141.654C722.264,143.119 719.23,148.725 713.976,154.164C713.484,154.673 712.99,155.163 712.495,155.627L712.221,155.887C711.75,156.332 711.277,156.755 710.81,157.154L710.056,157.79L709.113,158.536C708.646,158.889 708.191,159.217 707.748,159.517L707.294,159.826L706.873,160.093L706.441,160.354L706.176,160.507L705.579,160.827C705.338,160.952 705.103,161.063 704.877,161.162L704.292,161.397L703.744,161.57L703.526,161.624L703.242,161.678L702.953,161.711L702.887,161.71L702.758,161.719L702.455,161.7L702.448,161.699L702.441,161.698L702.236,161.656L702.192,161.641L702.16,161.633L702.038,161.586L701.915,161.523L701.895,161.508C701.826,161.468 701.765,161.42 701.708,161.366C700.192,159.901 703.226,154.295 708.48,148.856C708.974,148.344 709.471,147.852 709.97,147.384L710.24,147.128C710.714,146.681 711.188,146.257 711.658,145.856L711.928,145.628C712.409,145.216 712.888,144.831 713.357,144.473L714.271,143.8L715.162,143.194L715.613,142.908L716.015,142.666L716.312,142.495L716.825,142.218L716.977,142.14L717.596,141.851C717.821,141.754 718.038,141.669 718.246,141.596L718.746,141.441L719.247,141.337L719.503,141.309Z"/>
                <clipPath id="_clip1">
                    <path d="M581.456,285.275C583.357,287.984 585.437,290.565 587.699,292.988C588.993,294.31 590.358,295.561 591.783,296.736C552.183,337.526 502.245,389.089 439.864,454.491C485.668,400.33 523.851,354.621 555.772,316.218L556.093,316.408L555.925,316.034C564.922,305.21 573.421,294.967 581.456,285.275ZM644.643,209.16C647.486,216.996 650.758,224.675 654.361,232.203C650.86,235.833 647.21,239.611 643.411,243.537C639.908,236.572 636.663,229.466 633.732,222.239C637.531,217.675 641.165,213.318 644.643,209.16ZM673.48,175.183C707.436,136.086 718.521,128.255 726,135.5C734.552,143.785 725.105,157.926 675.507,210.134C674.23,198.511 673.325,186.861 673.48,175.183ZM719.503,141.309L719.581,141.31L719.73,141.301L720.001,141.32L720.02,141.324L720.036,141.325L720.22,141.364L720.271,141.382L720.309,141.391L720.418,141.434L720.547,141.5L720.565,141.514C720.632,141.553 720.692,141.601 720.748,141.654C722.264,143.119 719.23,148.725 713.976,154.164C713.484,154.673 712.99,155.163 712.495,155.627L712.221,155.887C711.75,156.332 711.277,156.755 710.81,157.154L710.056,157.79L709.113,158.536C708.646,158.889 708.191,159.217 707.748,159.517L707.294,159.826L706.873,160.093L706.441,160.354L706.176,160.507L705.579,160.827C705.338,160.952 705.103,161.063 704.877,161.162L704.292,161.397L703.744,161.57L703.526,161.624L703.242,161.678L702.953,161.711L702.887,161.71L702.758,161.719L702.455,161.7L702.448,161.699L702.441,161.698L702.236,161.656L702.192,161.641L702.16,161.633L702.038,161.586L701.915,161.523L701.895,161.508C701.826,161.468 701.765,161.42 701.708,161.366C700.192,159.901 703.226,154.295 708.48,148.856C708.974,148.344 709.471,147.852 709.97,147.384L710.24,147.128C710.714,146.681 711.188,146.257 711.658,145.856L711.928,145.628C712.409,145.216 712.888,144.831 713.357,144.473L714.271,143.8L715.162,143.194L715.613,142.908L716.015,142.666L716.312,142.495L716.825,142.218L716.977,142.14L717.596,141.851C717.821,141.754 718.038,141.669 718.246,141.596L718.746,141.441L719.247,141.337L719.503,141.309Z"/>
                </clipPath>
                <g clip-path="url(#_clip1)">
                    <path d="M581.456,285.275C583.357,287.984 585.437,290.565 587.699,292.988C588.993,294.31 590.358,295.561 591.783,296.736C552.183,337.526 502.245,389.089 439.864,454.491C485.668,400.33 523.851,354.621 555.772,316.218L556.093,316.408L555.925,316.034C564.922,305.21 573.421,294.967 581.456,285.275ZM633.732,222.239C646.175,207.289 656.849,194.562 666.045,183.811C705.875,137.25 718,127.75 726,135.5C736.147,145.33 720.955,163.405 643.411,243.537C639.908,236.572 636.663,229.466 633.732,222.239ZM719.698,141.301L719.73,141.301C720.16,141.305 720.505,141.419 720.748,141.654C722.264,143.119 719.23,148.725 713.976,154.164C709.605,158.69 705.065,161.684 702.789,161.719L702.758,161.719C702.313,161.72 701.957,161.606 701.708,161.366C700.192,159.901 703.226,154.295 708.48,148.856C712.872,144.309 717.433,141.308 719.698,141.301Z" style="fill-rule:nonzero;"/>
                    <path d="M720.748,141.654C722.264,143.119 719.23,148.725 713.976,154.164C708.722,159.604 703.225,162.831 701.708,161.366C700.192,159.901 703.226,154.295 708.48,148.856C713.734,143.416 719.231,140.189 720.748,141.654Z" style="fill:white;fill-rule:nonzero;"/>
                </g>
            </g>
            <g transform="matrix(1,0,0,1,-481.961,-213.417)">
                <path d="M248.436,317.83L238.806,289.796L178.886,289.796L169.256,317.83L124.53,317.83L131.397,299.79C129.657,302.002 127.679,304.021 125.463,305.846C120.755,309.841 114.977,312.837 108.129,314.834C101.281,316.831 93.577,317.83 85.017,317.83L17.607,317.83L17.607,156.474L80.095,156.474C94.932,156.474 106.203,160.04 113.907,167.174C121.611,174.307 125.463,184.579 125.463,197.99C125.463,206.122 123.965,212.898 120.969,218.32C118.116,223.598 113.693,228.092 107.701,231.802C113.693,232.943 118.758,234.726 122.895,237.152C127.175,239.434 130.599,242.288 133.167,245.712C135.878,249.136 137.804,252.988 138.945,257.268C140.086,261.548 140.657,266.113 140.657,270.964C140.657,272.695 140.586,274.381 140.444,276.022L185.948,156.474L231.744,156.474L288.183,304.749L288.183,156.474L353.453,156.474C362.441,156.474 370.288,157.829 376.993,160.54C383.699,163.108 389.191,166.674 393.471,171.24C397.894,175.805 401.175,181.084 403.315,187.076C405.598,193.068 406.739,199.488 406.739,206.336C406.739,218.605 403.743,228.592 397.751,236.296C391.902,243.857 383.199,248.993 371.643,251.704L422.361,317.83L370.145,317.83L330.127,255.77L330.127,317.83L248.436,317.83ZM59.551,285.302L68.753,285.302C79.31,285.302 86.872,283.946 91.437,281.236C96.003,278.525 98.285,274.174 98.285,268.182C98.285,262.19 96.003,257.838 91.437,255.128C86.872,252.417 79.31,251.062 68.753,251.062L59.551,251.062L59.551,285.302ZM227.678,257.91L208.846,204.196L190.014,257.91L227.678,257.91ZM330.127,228.592L338.045,228.592C346.32,228.592 352.669,226.88 357.091,223.456C361.514,220.032 363.725,215.11 363.725,208.69C363.725,202.27 361.514,197.348 357.091,193.924C352.669,190.5 346.32,188.788 338.045,188.788L330.127,188.788L330.127,228.592ZM59.551,219.818L67.255,219.818C80.38,219.818 86.943,214.61 86.943,204.196C86.943,193.781 80.38,188.574 67.255,188.574L59.551,188.574L59.551,219.818ZM216.978,119.88C216.978,117.169 217.478,114.601 218.476,112.176C219.618,109.608 221.116,107.396 222.97,105.542C224.968,103.544 227.25,102.046 229.818,101.048C232.386,99.906 235.097,99.336 237.95,99.336C240.804,99.336 243.443,99.906 245.868,101.048C248.436,102.046 250.648,103.473 252.502,105.328C254.5,107.182 256.069,109.394 257.21,111.962C258.352,114.53 258.922,117.24 258.922,120.094C258.922,126.086 256.854,131.079 252.716,135.074C248.722,139.068 243.8,141.066 237.95,141.066C231.958,141.066 226.965,139.068 222.97,135.074C218.976,130.936 216.978,125.872 216.978,119.88ZM158.77,119.88C158.77,117.169 159.27,114.601 160.268,112.176C161.41,109.608 162.908,107.396 164.762,105.542C166.76,103.544 169.042,102.046 171.61,101.048C174.178,99.906 176.889,99.336 179.742,99.336C182.596,99.336 185.235,99.906 187.66,101.048C190.228,102.046 192.44,103.473 194.294,105.328C196.292,107.182 197.861,109.394 199.002,111.962C200.144,114.53 200.714,117.24 200.714,120.094C200.714,123.09 200.144,125.872 199.002,128.44C197.861,130.865 196.363,133.076 194.508,135.074C192.654,136.928 190.442,138.426 187.874,139.568C185.306,140.566 182.667,141.066 179.956,141.066C173.822,141.066 168.757,138.997 164.762,134.86C160.768,130.722 158.77,125.729 158.77,119.88Z" style="fill-rule:nonzero;"/>
            </g>
            <g transform="matrix(1,0,0,1,-481.961,-213.417)">
                <path d="M711.588,156.474L713.394,156.474C716.473,156.474 719.398,156.628 722.171,156.935L721.81,157.575C721.633,157.877 721.392,158.28 721.079,158.78L720.288,160.012L719.468,161.237L718.585,162.508L717.686,163.761L716.821,164.935L715.987,166.04L715.088,167.207L714.119,168.438L713.077,169.733L711.962,171.092L711.176,172.034L710.355,173.003L709.5,174L708.044,175.674L706.618,177.293L705.319,178.744L703.928,180.275L702.651,181.657L701.486,182.895L700.19,184.245L698.856,185.598L697.782,186.657L696.853,187.542L696.466,187.901C696.026,188.305 695.777,188.518 695.712,188.574L692.85,188.574L692.85,219.818L700.554,219.818C713.679,219.818 720.242,214.61 720.242,204.196C720.242,196.083 716.259,191.13 708.296,189.338L708.593,189.042L709.202,188.429L709.81,187.805L710.126,187.476L711.058,186.485L712.492,184.898L713.452,183.792L714.263,182.827L715.077,181.828L715.892,180.797L716.705,179.734L717.514,178.639L718.317,177.512L719.675,175.549L720.422,174.461L721.907,172.277L723.304,170.194L723.932,169.248L725.264,167.219L726.279,165.649L727.058,164.427L727.308,164.031L728.424,162.243L729.263,160.87L729.566,160.368C729.955,159.719 730.326,159.091 730.677,158.484C737.333,160.236 742.842,163.133 747.206,167.174C754.91,174.307 758.762,184.579 758.762,197.99C758.762,206.122 757.264,212.898 754.268,218.32C751.415,223.598 746.992,228.092 741,231.802C746.992,232.943 752.057,234.726 756.194,237.152C760.474,239.434 763.898,242.288 766.466,245.712C769.177,249.136 771.103,252.988 772.244,257.268C773.385,261.548 773.956,266.113 773.956,270.964C773.956,272.695 773.885,274.381 773.743,276.022L819.247,156.474L865.043,156.474L921.273,304.2L921.273,156.474L986.543,156.474C995.531,156.474 1003.38,157.829 1010.08,160.54C1016.79,163.108 1022.28,166.674 1026.56,171.24C1030.98,175.805 1034.27,181.084 1036.41,187.076C1038.69,193.068 1039.83,199.488 1039.83,206.336C1039.83,218.605 1036.83,228.592 1030.84,236.296C1024.99,243.857 1016.29,248.993 1004.73,251.704L1055.45,317.83L1003.24,317.83L963.217,255.77L963.217,317.83L881.735,317.83L872.105,289.796L812.185,289.796L802.555,317.83L757.829,317.83L764.696,299.79C764.76,299.708 764.794,299.616 764.8,299.516L764.696,299.79C762.956,302.002 760.978,304.021 758.762,305.846C754.054,309.841 748.276,312.837 741.428,314.834C734.58,316.831 726.876,317.83 718.316,317.83L650.906,317.83L650.906,295.809C651.098,295.816 651.289,295.824 651.48,295.832C653.741,290.979 656.793,286.017 656.526,280.401C656.681,272.46 654.505,264.684 650.906,257.637L650.906,224.7C654.961,233.87 659.54,242.817 664.473,251.551C670.054,247.352 678.431,243.677 678.657,235.773C677.29,211.723 677.019,159.079 674.113,156.474L702.625,156.474C701.344,158.8 700.936,160.62 701.708,161.366C702.995,162.609 707.149,160.473 711.588,156.474ZM692.85,285.302L702.052,285.302C712.609,285.302 720.171,283.946 724.736,281.236C729.301,278.525 731.584,274.174 731.584,268.182C731.584,262.19 729.301,257.838 724.736,255.128C720.171,252.417 712.609,251.062 702.052,251.062L692.85,251.062L692.85,285.302ZM860.977,257.91L842.145,204.196L823.313,257.91L860.977,257.91ZM963.217,228.592L971.135,228.592C979.41,228.592 985.759,226.88 990.181,223.456C994.604,220.032 996.815,215.11 996.815,208.69C996.815,202.27 994.604,197.348 990.181,193.924C985.759,190.5 979.41,188.788 971.135,188.788L963.217,188.788L963.217,228.592Z" style="fill-rule:nonzero;"/>
            </g>
        </g>
    </g>
</svg>
