<svg width="500" height="500" viewBox="0 0 500 500" fill="none" xmlns="http://www.w3.org/2000/svg">
<rect width="500" height="500" fill="#F8F7F4"/>
<path d="M74.8224 180.58L75.3097 200.072C75.3097 204.165 74.7574 207.771 73.6528 210.89C72.6132 214.074 71.3138 216.445 69.7544 218.004C66.5707 221.318 63.7768 223.202 61.3728 223.657L59.7159 224.047C58.7413 224.047 58.254 223.755 58.254 223.17L58.7413 221.708C63.4844 215.146 65.856 199.032 65.856 173.367C65.856 171.028 65.8235 169.274 65.7585 168.105C64.3941 168.105 63.0296 168.202 61.6652 168.397H61.5677C60.853 168.397 60.4956 168.04 60.4956 167.325L60.788 163.621C60.853 163.037 61.3078 162.744 62.1525 162.744H65.661V156.214L65.856 146.956C65.856 146.501 65.9209 146.013 66.0509 145.494C66.2458 144.909 66.9605 144.064 68.195 142.96C69.4295 141.79 71.2488 140.751 73.6528 139.841C76.0569 138.866 78.1035 138.379 79.7928 138.379C81.5471 138.379 82.4243 138.899 82.4243 139.938C82.4243 140.328 82.1319 140.653 81.5471 140.913C79.6629 141.498 78.1035 143.187 76.869 145.981C75.6995 148.71 75.1147 153.388 75.1147 160.015V162.744C78.4284 162.614 80.605 162.452 81.6446 162.257C82.0994 162.257 82.3268 162.647 82.3268 163.426C82.3268 164.206 81.9695 165.181 81.2548 166.35C80.605 167.455 79.7604 168.04 78.7208 168.105C77.7462 168.105 76.5117 168.072 75.0173 168.007C74.8873 172.945 74.8224 177.136 74.8224 180.58ZM91.4051 168.202C89.7158 168.267 88.4813 168.332 87.7016 168.397C86.9869 168.397 86.6296 168.202 86.6296 167.812C86.6296 167.422 86.8245 167.032 87.2143 166.643C91.3727 162.809 98.3898 160.892 108.266 160.892C111.644 160.892 114.308 161.185 116.258 161.77L117.232 162.062C118.012 162.387 118.402 162.744 118.402 163.134C118.402 163.459 118.174 163.719 117.72 163.914C115.965 164.434 114.276 165.278 112.652 166.448C111.027 167.552 110.215 168.332 110.215 168.787L110.8 169.469C112.879 170.639 114.471 172.49 115.575 175.024C116.745 177.558 117.395 179.8 117.525 181.749L117.72 184.77C117.72 191.203 115.933 196.498 112.359 200.656C108.786 204.815 103.913 206.894 97.7401 206.894C94.6213 206.894 91.9249 206.342 89.6508 205.237C87.3768 204.133 85.6874 202.898 84.5829 201.534C83.5433 200.104 82.6987 198.512 82.0489 196.758C81.2692 194.354 80.8794 191.885 80.8794 189.351C80.8794 186.752 81.3017 184.153 82.1464 181.554C83.056 178.955 84.0631 177.038 85.1677 175.804C86.3372 174.569 87.6367 173.562 89.0661 172.783C90.8854 171.808 92.3473 171.321 93.4518 171.321C94.5564 171.321 95.1086 171.548 95.1086 172.003L94.5239 172.978C93.0945 174.667 92.0549 176.876 91.4051 179.605C90.8204 182.334 90.528 184.77 90.528 186.914C90.528 188.994 90.7879 191.073 91.3077 193.152C91.8275 195.231 92.4122 196.79 93.062 197.83C93.7117 198.805 94.4589 199.552 95.3036 200.072C96.5381 200.851 97.8375 201.241 99.202 201.241C100.566 201.241 101.898 200.721 103.198 199.682C104.497 198.577 105.439 197.148 106.024 195.394C107.194 192.145 107.779 188.799 107.779 185.355C107.779 179.897 106.382 175.674 103.588 172.685C100.859 169.696 96.798 168.202 91.4051 168.202ZM151.554 178.825L151.943 182.236C151.943 183.471 150.774 184.088 148.435 184.088C143.692 184.088 141.32 182.301 141.32 178.728C141.32 177.883 141.548 176.714 142.002 175.219C142.457 173.725 142.685 172.425 142.685 171.321C142.685 170.216 142.36 169.274 141.71 168.494C141.06 167.65 140.118 167.227 138.884 167.227C137.649 167.227 136.577 167.682 135.668 168.592C134.823 169.437 134.303 170.314 134.108 171.223L133.718 172.588C133.328 174.602 133.134 177.981 133.134 182.724C133.134 187.402 133.199 191.105 133.328 193.834C133.458 196.498 133.588 198.35 133.718 199.389C133.848 200.364 133.913 200.949 133.913 201.144C133.913 202.768 132.906 204.068 130.892 205.042C128.878 206.082 126.864 206.602 124.849 206.602C122.835 206.602 121.828 206.179 121.828 205.335L122.315 202.313C123.225 196.661 123.68 189.286 123.68 180.19C123.68 171.093 123.355 164.921 122.705 161.672C122.705 160.892 123.387 160.503 124.752 160.503C128.261 160.503 130.6 161.705 131.769 164.109C131.834 164.369 131.932 164.499 132.061 164.499C132.256 164.499 132.711 164.206 133.426 163.621C135.57 161.867 138.104 160.99 141.028 160.99C142.847 160.99 144.666 161.347 146.486 162.062C150.189 163.556 152.041 166.675 152.041 171.418L151.554 178.825ZM178.498 205.529C179.408 200.981 179.863 194.614 179.863 186.427C179.863 178.175 179.83 173.302 179.765 171.808C179.7 170.314 179.246 169.112 178.401 168.202C177.556 167.292 176.809 166.773 176.159 166.643C175.575 166.513 174.73 166.448 173.625 166.448C172.521 166.448 171.449 166.968 170.409 168.007C169.37 168.982 168.752 169.989 168.557 171.028L168.168 172.588C167.973 174.537 167.875 178.858 167.875 185.55C167.875 192.242 168.005 196.466 168.265 198.22C168.59 199.909 168.752 201.046 168.752 201.631C168.752 202.216 168.493 202.801 167.973 203.385C165.764 205.724 162.645 206.894 158.616 206.894C157.187 206.894 156.472 206.472 156.472 205.627C157.772 197.83 158.422 187.889 158.422 175.804C158.422 171.321 158.324 168.299 158.129 166.74L157.739 163.621C157.674 162.907 157.544 162.127 157.349 161.282C157.349 160.503 158.357 160.113 160.371 160.113C163.36 160.113 165.341 161.217 166.316 163.426C166.381 163.686 166.511 163.816 166.706 163.816C166.901 163.816 167.355 163.556 168.07 163.037C170.214 161.347 173.106 160.503 176.744 160.503C178.823 160.503 180.87 160.892 182.884 161.672C184.898 162.452 186.295 163.491 187.075 164.791C187.14 164.921 187.237 164.986 187.367 164.986C187.497 164.986 187.692 164.856 187.952 164.596C190.681 161.867 194.222 160.503 198.575 160.503C204.358 160.503 208.321 162.582 210.466 166.74C211.245 168.364 211.635 170.411 211.635 172.88C211.635 175.349 211.44 178.858 211.05 183.406C210.661 187.954 210.466 191.43 210.466 193.834C210.466 196.238 210.693 198.415 211.148 200.364C211.668 202.313 212.155 203.71 212.61 204.555C213.13 205.4 213.389 205.887 213.389 206.017C213.389 206.861 212.48 207.284 210.661 207.284C206.177 207.284 203.059 206.374 201.304 204.555C199.55 202.736 198.673 200.364 198.673 197.44C198.673 194.451 199.258 190.456 200.427 185.453C201.662 180.385 202.279 176.584 202.279 174.05C202.279 168.917 200.2 166.35 196.041 166.35C194.287 166.35 192.89 166.87 191.851 167.91C190.811 168.949 190.194 169.989 189.999 171.028L189.804 172.588C189.544 175.577 189.414 179.183 189.414 183.406C189.414 187.629 189.479 190.943 189.609 193.347C189.739 195.686 189.869 197.538 189.999 198.902C190.129 200.202 190.194 200.981 190.194 201.241C190.194 203.06 189.057 204.457 186.783 205.432C184.509 206.407 182.299 206.894 180.155 206.894C179.051 206.894 178.498 206.439 178.498 205.529ZM239.865 205.914C236.127 205.914 232.747 205.083 229.724 203.422C226.725 201.738 224.337 199.488 222.56 196.673C220.807 193.835 219.93 190.686 219.93 187.225C219.93 185.102 220.322 183.118 221.107 181.272C221.891 179.403 223.172 177.511 224.948 175.596C226.725 173.658 229.113 171.535 232.112 169.228L242.495 161.475C245.841 158.868 248.217 156.514 249.625 154.415C251.055 152.315 251.771 150.008 251.771 147.493C251.771 143.963 250.652 141.055 248.414 138.771C246.199 136.464 243.395 135.31 240.003 135.31C237.696 135.31 235.562 135.898 233.601 137.075C231.662 138.252 230.093 139.809 228.894 141.748C227.717 143.686 227.129 145.785 227.129 148.046C227.129 149.569 227.463 151.069 228.132 152.546C228.801 153.999 229.828 155.661 231.213 157.53C232.597 159.375 234.374 161.66 236.542 164.382L268.66 204.945H265.891L234.881 165.767C232.712 163.044 230.89 160.702 229.413 158.741C227.936 156.757 226.817 154.934 226.056 153.273C225.294 151.588 224.914 149.846 224.914 148.046C224.914 145.37 225.606 142.901 226.99 140.64C228.375 138.356 230.209 136.533 232.493 135.172C234.777 133.787 237.281 133.095 240.003 133.095C242.68 133.095 245.068 133.718 247.168 134.964C249.29 136.21 250.952 137.917 252.151 140.086C253.374 142.255 253.986 144.724 253.986 147.493C253.986 150.331 253.201 152.961 251.632 155.384C250.063 157.806 247.479 160.437 243.88 163.275L233.497 171.027C229.274 174.281 226.321 177.084 224.637 179.437C222.975 181.791 222.145 184.387 222.145 187.225C222.145 190.27 222.929 193.027 224.498 195.496C226.067 197.965 228.19 199.938 230.866 201.415C233.543 202.891 236.542 203.653 239.865 203.699C243.326 203.63 246.441 202.983 249.21 201.761C251.978 200.538 254.389 198.853 256.443 196.708C258.52 194.539 260.227 191.978 261.565 189.024C262.926 186.048 263.907 182.771 264.507 179.195L266.722 179.472C266.399 181.456 265.914 183.429 265.268 185.39C264.645 187.351 263.896 189.22 263.019 190.997C262.165 192.774 261.231 194.377 260.215 195.808C259.962 196.177 259.696 196.535 259.419 196.881C259.143 197.227 258.854 197.561 258.554 197.884C256.201 200.376 253.363 202.337 250.04 203.768C246.718 205.199 243.326 205.914 239.865 205.914ZM286.209 180.58L286.697 200.072C286.697 204.165 286.144 207.771 285.04 210.89C284 214.074 282.701 216.445 281.141 218.004C277.958 221.318 275.164 223.202 272.76 223.657L271.103 224.047C270.128 224.047 269.641 223.755 269.641 223.17L270.128 221.708C274.871 215.146 277.243 199.032 277.243 173.367C277.243 171.028 277.21 169.274 277.145 168.105C275.781 168.105 274.417 168.202 273.052 168.397H272.955C272.24 168.397 271.883 168.04 271.883 167.325L272.175 163.621C272.24 163.037 272.695 162.744 273.539 162.744H277.048V156.214L277.243 146.956C277.243 146.501 277.308 146.013 277.438 145.494C277.633 144.909 278.347 144.064 279.582 142.96C280.816 141.79 282.636 140.751 285.04 139.841C287.444 138.866 289.49 138.379 291.18 138.379C292.934 138.379 293.811 138.899 293.811 139.938C293.811 140.328 293.519 140.653 292.934 140.913C291.05 141.498 289.49 143.187 288.256 145.981C287.086 148.71 286.502 153.388 286.502 160.015V162.744C289.815 162.614 291.992 162.452 293.032 162.257C293.486 162.257 293.714 162.647 293.714 163.426C293.714 164.206 293.356 165.181 292.642 166.35C291.992 167.455 291.147 168.04 290.108 168.105C289.133 168.105 287.899 168.072 286.404 168.007C286.274 172.945 286.209 177.136 286.209 180.58ZM327.696 175.706L327.501 188.181C327.501 196.823 328.444 202.021 330.328 203.775C330.588 204.035 330.718 204.327 330.718 204.652C330.718 205.627 328.606 206.114 324.383 206.114C320.224 206.114 318.015 204.88 317.755 202.411C317.69 201.826 317.658 200.624 317.658 198.805L318.048 183.211C318.048 182.756 317.788 182.529 317.268 182.529C314.149 182.529 311.225 183.406 308.497 185.16C305.768 186.914 304.403 189.156 304.403 191.885C304.403 193.314 304.793 194.516 305.573 195.491C306.352 196.466 307.295 196.953 308.399 196.953C309.569 196.953 310.511 196.726 311.225 196.271C312.005 195.816 312.46 195.556 312.59 195.491C313.695 195.621 314.247 196.79 314.247 199C314.247 201.144 313.24 202.898 311.225 204.262C309.211 205.562 307.1 206.212 304.891 206.212C302.681 206.212 300.765 205.822 299.14 205.042C297.581 204.262 296.444 203.385 295.729 202.411C295.015 201.436 294.43 200.332 293.975 199.097C293.52 197.603 293.293 196.303 293.293 195.199C293.293 190.65 294.722 187.012 297.581 184.283C300.44 181.554 304.111 179.605 308.594 178.435C314.507 177.266 317.593 176.194 317.853 175.219C318.048 174.504 318.145 173.302 318.145 171.613C318.145 168.17 316.391 166.448 312.882 166.448C311.388 166.448 310.056 166.935 308.886 167.91C307.717 168.819 307.132 169.989 307.132 171.418L307.717 173.757C307.587 174.862 306.417 175.512 304.208 175.706L303.136 175.804C301.187 175.804 299.628 175.317 298.458 174.342C297.354 173.367 296.801 172.068 296.801 170.444C296.801 169.404 297.126 168.267 297.776 167.032C298.491 165.733 299.368 164.693 300.407 163.914C301.447 163.134 303.039 162.452 305.183 161.867C307.392 161.217 309.504 160.892 311.518 160.892C313.532 160.892 315.091 160.957 316.196 161.087C317.301 161.217 318.795 161.542 320.679 162.062C322.628 162.517 324.22 163.426 325.455 164.791C326.754 166.155 327.436 167.617 327.501 169.177C327.631 170.671 327.696 172.848 327.696 175.706ZM353.088 161.185C354.257 161.185 355.297 161.347 356.207 161.672C357.181 161.932 357.701 162.062 357.766 162.062L358.351 161.575L357.961 150.951C357.831 149.132 357.441 147.573 356.791 146.273C356.142 144.974 355.557 144.129 355.037 143.739L354.16 143.252C353.77 142.992 353.575 142.7 353.575 142.375C353.575 141.4 355.07 140.263 358.058 138.964C361.112 137.664 363.484 137.015 365.173 137.015C366.862 137.015 367.772 137.372 367.902 138.087C368.227 140.296 368.389 144.519 368.389 150.757C368.389 156.929 368.227 163.004 367.902 168.982C367.642 174.959 367.512 181.749 367.512 189.351C367.512 196.888 367.999 201.631 368.974 203.58C369.234 204.035 369.364 204.457 369.364 204.847C369.364 205.822 367.967 206.309 365.173 206.309C359.845 206.309 357.181 205.042 357.181 202.508C357.051 201.469 356.986 199.877 356.986 197.733C356.986 195.523 357.181 191.463 357.571 185.55C358.026 179.572 358.253 174.992 358.253 171.808C358.253 168.559 356.629 166.935 353.38 166.935C350.197 166.935 347.76 168.819 346.071 172.588C344.381 176.356 343.537 180.125 343.537 183.893C343.537 191.885 345.551 195.881 349.579 195.881C350.164 195.881 350.716 195.783 351.236 195.588C351.821 195.329 352.178 195.199 352.308 195.199C352.828 195.199 353.218 195.523 353.478 196.173C353.803 196.823 353.965 197.473 353.965 198.122C353.965 200.332 353.088 202.216 351.334 203.775C349.579 205.27 347.435 206.017 344.901 206.017C341.003 206.017 338.046 204.327 336.032 200.949C334.083 197.505 333.108 193.249 333.108 188.181C333.108 181.749 334.635 175.771 337.689 170.249C339.249 167.52 341.36 165.343 344.024 163.719C346.688 162.029 349.709 161.185 353.088 161.185ZM383.019 180.19L383.116 182.626C383.116 183.016 383.376 183.211 383.896 183.211C385.975 183.016 387.795 182.496 389.354 181.652C390.913 180.742 392.083 179.735 392.863 178.63C394.422 176.226 395.267 174.147 395.397 172.393L395.494 171.223C395.494 167.715 394.097 165.96 391.303 165.96C389.224 165.96 387.535 166.87 386.235 168.689C384.091 171.548 383.019 175.382 383.019 180.19ZM404.265 193.152C404.265 195.621 403.746 197.798 402.706 199.682C401.731 201.501 400.594 202.866 399.295 203.775C398.06 204.62 396.599 205.302 394.909 205.822C392.765 206.472 390.718 206.796 388.769 206.796C383.311 206.796 379.283 204.75 376.684 200.656C374.085 196.563 372.786 191.365 372.786 185.063C372.786 178.695 374.377 173.043 377.561 168.105C380.81 163.167 385.65 160.698 392.083 160.698C397.931 160.698 401.894 162.744 403.973 166.838C404.818 168.397 405.24 169.891 405.24 171.321C405.24 172.685 405.175 173.79 405.045 174.634C404.915 175.414 404.46 176.616 403.681 178.24C402.901 179.865 401.861 181.327 400.562 182.626C399.262 183.926 397.216 185.16 394.422 186.33C391.628 187.499 388.347 188.279 384.578 188.669C384.059 188.669 383.799 188.896 383.799 189.351C383.799 189.936 383.994 190.813 384.383 191.982C384.838 193.087 385.326 194.029 385.845 194.809C387.275 196.628 389.386 197.538 392.18 197.538C394.974 197.538 397.346 196.628 399.295 194.809C400.335 193.834 401.179 192.632 401.829 191.203C402.089 190.683 402.414 190.423 402.804 190.423C403.258 190.423 403.616 190.78 403.876 191.495C404.136 192.21 404.265 192.762 404.265 193.152ZM438.416 178.825L438.805 182.236C438.805 183.471 437.636 184.088 435.297 184.088C430.554 184.088 428.182 182.301 428.182 178.728C428.182 177.883 428.41 176.714 428.864 175.219C429.319 173.725 429.547 172.425 429.547 171.321C429.547 170.216 429.222 169.274 428.572 168.494C427.922 167.65 426.98 167.227 425.746 167.227C424.511 167.227 423.439 167.682 422.529 168.592C421.685 169.437 421.165 170.314 420.97 171.223L420.58 172.588C420.19 174.602 419.995 177.981 419.995 182.724C419.995 187.402 420.06 191.105 420.19 193.834C420.32 196.498 420.45 198.35 420.58 199.389C420.71 200.364 420.775 200.949 420.775 201.144C420.775 202.768 419.768 204.068 417.754 205.042C415.74 206.082 413.725 206.602 411.711 206.602C409.697 206.602 408.69 206.179 408.69 205.335L409.177 202.313C410.087 196.661 410.542 189.286 410.542 180.19C410.542 171.093 410.217 164.921 409.567 161.672C409.567 160.892 410.249 160.503 411.614 160.503C415.122 160.503 417.461 161.705 418.631 164.109C418.696 164.369 418.793 164.499 418.923 164.499C419.118 164.499 419.573 164.206 420.288 163.621C422.432 161.867 424.966 160.99 427.89 160.99C429.709 160.99 431.528 161.347 433.348 162.062C437.051 163.556 438.903 166.675 438.903 171.418L438.416 178.825Z" fill="#2B2B2B"/>
<rect x="193.526" y="250.353" width="37.6492" height="16.5289" fill="#3B82F6"/>
<rect x="231.175" y="250.353" width="37.6492" height="16.5289" fill="#9EF0B9"/>
<rect x="268.824" y="250.353" width="37.6492" height="16.5289" fill="#FF6B57"/>
<path d="M69.8664 315.425V326.694H67.7768V302.652H69.8664V311.492H70.0543C70.4769 310.561 71.1304 309.817 72.0147 309.261C72.9069 308.706 74.0339 308.428 75.3956 308.428C76.6165 308.428 77.6887 308.678 78.6122 309.179C79.5357 309.68 80.2557 310.42 80.7722 311.398C81.2888 312.376 81.547 313.582 81.547 315.014V326.694H79.4457V315.143C79.4457 313.656 79.0309 312.486 78.2013 311.633C77.3796 310.772 76.2683 310.341 74.8674 310.341C73.9047 310.341 73.0478 310.545 72.2965 310.952C71.5451 311.359 70.9504 311.946 70.5121 312.713C70.0816 313.472 69.8664 314.376 69.8664 315.425ZM98.5074 319.803V308.663H100.597V326.694H98.5074V323.701H98.343C97.9204 324.624 97.2513 325.395 96.3356 326.013C95.4199 326.624 94.3008 326.929 92.9782 326.929C91.8277 326.929 90.8064 326.679 89.9142 326.178C89.022 325.669 88.3216 324.926 87.8129 323.947C87.3042 322.969 87.0498 321.768 87.0498 320.343V308.663H89.1394V320.214C89.1394 321.623 89.5542 322.758 90.3838 323.619C91.2134 324.472 92.2777 324.898 93.5769 324.898C94.3908 324.898 95.1734 324.703 95.9247 324.311C96.676 323.92 97.2943 323.349 97.7795 322.597C98.2648 321.838 98.5074 320.907 98.5074 319.803ZM106.129 326.694V308.663H108.16V311.433H108.348C108.708 310.502 109.307 309.77 110.144 309.238C110.989 308.698 112.003 308.428 113.184 308.428C114.429 308.428 115.45 308.721 116.248 309.308C117.054 309.888 117.657 310.686 118.056 311.703H118.209C118.616 310.702 119.277 309.907 120.193 309.32C121.116 308.725 122.235 308.428 123.55 308.428C125.225 308.428 126.548 308.956 127.518 310.013C128.489 311.062 128.974 312.595 128.974 314.615V326.694H126.884V314.615C126.884 313.19 126.52 312.122 125.792 311.41C125.065 310.698 124.106 310.341 122.916 310.341C121.539 310.341 120.478 310.764 119.735 311.609C118.991 312.455 118.62 313.527 118.62 314.826V326.694H116.483V314.427C116.483 313.206 116.143 312.22 115.462 311.468C114.781 310.717 113.822 310.341 112.586 310.341C111.756 310.341 111.009 310.545 110.344 310.952C109.686 311.359 109.166 311.926 108.782 312.654C108.407 313.374 108.219 314.204 108.219 315.143V326.694H106.129ZM139.542 327.105C138.454 327.105 137.46 326.894 136.56 326.471C135.66 326.041 134.944 325.423 134.412 324.616C133.88 323.803 133.614 322.816 133.614 321.658C133.614 320.766 133.782 320.015 134.119 319.404C134.455 318.794 134.932 318.293 135.551 317.902C136.169 317.51 136.901 317.201 137.746 316.974C138.591 316.747 139.523 316.571 140.54 316.446C141.549 316.321 142.403 316.211 143.099 316.117C143.803 316.023 144.34 315.875 144.707 315.671C145.075 315.468 145.259 315.139 145.259 314.685V314.262C145.259 313.034 144.891 312.067 144.156 311.363C143.428 310.651 142.379 310.295 141.009 310.295C139.71 310.295 138.65 310.58 137.828 311.152C137.014 311.723 136.443 312.396 136.114 313.171L134.13 312.455C134.537 311.468 135.101 310.682 135.821 310.095C136.541 309.5 137.347 309.074 138.239 308.815C139.131 308.549 140.035 308.416 140.951 308.416C141.639 308.416 142.356 308.506 143.099 308.686C143.85 308.866 144.547 309.179 145.189 309.625C145.83 310.064 146.351 310.678 146.75 311.468C147.149 312.251 147.349 313.245 147.349 314.45V326.694H145.259V323.842H145.13C144.88 324.374 144.508 324.89 144.015 325.391C143.522 325.892 142.903 326.303 142.16 326.624C141.416 326.945 140.544 327.105 139.542 327.105ZM139.824 325.192C140.935 325.192 141.898 324.945 142.712 324.452C143.526 323.959 144.152 323.306 144.59 322.492C145.036 321.67 145.259 320.766 145.259 319.78V317.174C145.103 317.322 144.84 317.456 144.473 317.573C144.113 317.69 143.694 317.796 143.216 317.89C142.747 317.976 142.277 318.05 141.808 318.113C141.338 318.176 140.916 318.23 140.54 318.277C139.523 318.402 138.654 318.598 137.934 318.864C137.214 319.13 136.662 319.498 136.279 319.968C135.895 320.429 135.703 321.024 135.703 321.752C135.703 322.848 136.095 323.697 136.877 324.3C137.66 324.894 138.642 325.192 139.824 325.192ZM154.997 315.425V326.694H152.907V308.663H154.938V311.492H155.126C155.549 310.568 156.206 309.829 157.098 309.273C157.998 308.71 159.11 308.428 160.432 308.428C161.645 308.428 162.71 308.682 163.625 309.191C164.549 309.692 165.265 310.432 165.774 311.41C166.29 312.388 166.548 313.589 166.548 315.014V326.694H164.459V315.143C164.459 313.664 164.044 312.494 163.214 311.633C162.393 310.772 161.289 310.341 159.904 310.341C158.957 310.341 158.116 310.545 157.38 310.952C156.644 311.359 156.061 311.946 155.631 312.713C155.208 313.472 154.997 314.376 154.997 315.425ZM181.783 315.401V317.373H171.781V315.401H181.783ZM194.074 327.07C192.462 327.07 191.057 326.667 189.86 325.861C188.67 325.055 187.747 323.951 187.089 322.55C186.432 321.149 186.103 319.553 186.103 317.761C186.103 315.953 186.436 314.345 187.101 312.936C187.774 311.527 188.705 310.424 189.895 309.625C191.084 308.819 192.466 308.416 194.039 308.416C195.244 308.416 196.336 308.651 197.314 309.121C198.292 309.582 199.098 310.236 199.732 311.081C200.374 311.918 200.777 312.897 200.941 314.016H198.828C198.609 312.998 198.081 312.13 197.244 311.41C196.414 310.682 195.358 310.318 194.074 310.318C192.924 310.318 191.906 310.631 191.022 311.257C190.137 311.875 189.445 312.74 188.944 313.852C188.451 314.955 188.204 316.235 188.204 317.69C188.204 319.154 188.447 320.449 188.932 321.576C189.417 322.695 190.098 323.572 190.975 324.206C191.859 324.84 192.892 325.156 194.074 325.156C194.872 325.156 195.6 325.008 196.258 324.71C196.923 324.405 197.478 323.975 197.924 323.419C198.378 322.863 198.684 322.202 198.84 321.435H200.953C200.797 322.523 200.409 323.493 199.791 324.346C199.181 325.192 198.386 325.857 197.408 326.342C196.438 326.827 195.326 327.07 194.074 327.07ZM212.722 327.07C211.039 327.07 209.584 326.679 208.355 325.896C207.126 325.106 206.175 324.014 205.502 322.621C204.837 321.22 204.504 319.608 204.504 317.784C204.504 315.969 204.837 314.356 205.502 312.948C206.175 311.531 207.103 310.424 208.284 309.625C209.474 308.819 210.848 308.416 212.405 308.416C213.383 308.416 214.326 308.596 215.234 308.956C216.142 309.308 216.956 309.852 217.676 310.588C218.404 311.316 218.979 312.235 219.402 313.347C219.824 314.45 220.035 315.757 220.035 317.268V318.301H205.948V316.458H217.899C217.899 315.299 217.664 314.259 217.195 313.335C216.733 312.404 216.087 311.668 215.258 311.128C214.436 310.588 213.485 310.318 212.405 310.318C211.262 310.318 210.257 310.623 209.388 311.234C208.519 311.844 207.838 312.65 207.345 313.652C206.86 314.654 206.614 315.749 206.606 316.939V318.042C206.606 319.475 206.852 320.727 207.345 321.799C207.846 322.863 208.554 323.689 209.47 324.276C210.386 324.863 211.47 325.156 212.722 325.156C213.575 325.156 214.322 325.023 214.964 324.757C215.614 324.491 216.158 324.135 216.596 323.689C217.042 323.235 217.378 322.738 217.605 322.198L219.589 322.844C219.315 323.603 218.865 324.303 218.239 324.945C217.621 325.587 216.846 326.103 215.915 326.495C214.991 326.878 213.927 327.07 212.722 327.07ZM226.73 315.425V326.694H224.64V308.663H226.671V311.492H226.859C227.282 310.568 227.939 309.829 228.831 309.273C229.731 308.71 230.842 308.428 232.165 308.428C233.378 308.428 234.443 308.682 235.358 309.191C236.282 309.692 236.998 310.432 237.506 311.41C238.023 312.388 238.281 313.589 238.281 315.014V326.694H236.192V315.143C236.192 313.664 235.777 312.494 234.947 311.633C234.126 310.772 233.022 310.341 231.637 310.341C230.69 310.341 229.849 310.545 229.113 310.952C228.377 311.359 227.794 311.946 227.364 312.713C226.941 313.472 226.73 314.376 226.73 315.425ZM250.886 308.663V310.482H242.281V308.663H250.886ZM244.97 304.343H247.071V321.987C247.071 322.738 247.2 323.329 247.458 323.76C247.717 324.182 248.053 324.483 248.468 324.663C248.883 324.836 249.325 324.922 249.795 324.922C250.068 324.922 250.303 324.906 250.499 324.875C250.695 324.836 250.867 324.796 251.015 324.757L251.462 326.647C251.258 326.726 251.008 326.796 250.71 326.859C250.413 326.929 250.045 326.964 249.607 326.964C248.84 326.964 248.1 326.796 247.388 326.46C246.684 326.123 246.105 325.622 245.651 324.957C245.197 324.292 244.97 323.466 244.97 322.48V304.343ZM262.728 327.07C261.046 327.07 259.59 326.679 258.361 325.896C257.133 325.106 256.182 324.014 255.509 322.621C254.843 321.22 254.511 319.608 254.511 317.784C254.511 315.969 254.843 314.356 255.509 312.948C256.182 311.531 257.109 310.424 258.291 309.625C259.48 308.819 260.854 308.416 262.411 308.416C263.39 308.416 264.333 308.596 265.241 308.956C266.148 309.308 266.962 309.852 267.682 310.588C268.41 311.316 268.985 312.235 269.408 313.347C269.831 314.45 270.042 315.757 270.042 317.268V318.301H255.955V316.458H267.905C267.905 315.299 267.671 314.259 267.201 313.335C266.739 312.404 266.094 311.668 265.264 311.128C264.442 310.588 263.491 310.318 262.411 310.318C261.269 310.318 260.263 310.623 259.394 311.234C258.526 311.844 257.845 312.65 257.352 313.652C256.867 314.654 256.62 315.749 256.612 316.939V318.042C256.612 319.475 256.859 320.727 257.352 321.799C257.853 322.863 258.561 323.689 259.477 324.276C260.392 324.863 261.476 325.156 262.728 325.156C263.581 325.156 264.329 325.023 264.971 324.757C265.62 324.491 266.164 324.135 266.602 323.689C267.048 323.235 267.385 322.738 267.612 322.198L269.596 322.844C269.322 323.603 268.872 324.303 268.246 324.945C267.628 325.587 266.853 326.103 265.921 326.495C264.998 326.878 263.934 327.07 262.728 327.07ZM274.647 326.694V308.663H276.678V311.433H276.83C277.19 310.525 277.816 309.794 278.708 309.238C279.608 308.675 280.626 308.393 281.761 308.393C281.933 308.393 282.125 308.397 282.336 308.405C282.547 308.412 282.723 308.42 282.864 308.428V310.553C282.77 310.537 282.606 310.514 282.371 310.482C282.136 310.451 281.882 310.435 281.608 310.435C280.669 310.435 279.832 310.635 279.096 311.034C278.368 311.425 277.793 311.969 277.37 312.666C276.948 313.362 276.736 314.157 276.736 315.049V326.694H274.647ZM293.171 327.07C291.489 327.07 290.033 326.679 288.804 325.896C287.576 325.106 286.625 324.014 285.952 322.621C285.286 321.22 284.954 319.608 284.954 317.784C284.954 315.969 285.286 314.356 285.952 312.948C286.625 311.531 287.552 310.424 288.734 309.625C289.923 308.819 291.297 308.416 292.854 308.416C293.833 308.416 294.776 308.596 295.683 308.956C296.591 309.308 297.405 309.852 298.125 310.588C298.853 311.316 299.428 312.235 299.851 313.347C300.274 314.45 300.485 315.757 300.485 317.268V318.301H286.398V316.458H298.348C298.348 315.299 298.113 314.259 297.644 313.335C297.182 312.404 296.537 311.668 295.707 311.128C294.885 310.588 293.934 310.318 292.854 310.318C291.712 310.318 290.706 310.623 289.837 311.234C288.969 311.844 288.288 312.65 287.795 313.652C287.309 314.654 287.063 315.749 287.055 316.939V318.042C287.055 319.475 287.302 320.727 287.795 321.799C288.296 322.863 289.004 323.689 289.919 324.276C290.835 324.863 291.919 325.156 293.171 325.156C294.024 325.156 294.772 325.023 295.413 324.757C296.063 324.491 296.607 324.135 297.045 323.689C297.491 323.235 297.828 322.738 298.055 322.198L300.039 322.844C299.765 323.603 299.315 324.303 298.689 324.945C298.07 325.587 297.296 326.103 296.364 326.495C295.441 326.878 294.376 327.07 293.171 327.07ZM311.581 327.07C310.102 327.07 308.807 326.679 307.696 325.896C306.584 325.113 305.716 324.022 305.09 322.621C304.471 321.22 304.162 319.588 304.162 317.726C304.162 315.871 304.471 314.247 305.09 312.854C305.716 311.453 306.588 310.365 307.707 309.59C308.827 308.808 310.13 308.416 311.617 308.416C312.712 308.416 313.624 308.612 314.352 309.003C315.08 309.387 315.663 309.864 316.101 310.435C316.539 311.007 316.88 311.562 317.122 312.102H317.31V302.652H319.412V326.694H317.369V323.349H317.122C316.88 323.896 316.535 324.46 316.089 325.039C315.643 325.61 315.052 326.092 314.317 326.483C313.589 326.874 312.677 327.07 311.581 327.07ZM311.828 325.156C312.994 325.156 313.988 324.84 314.81 324.206C315.631 323.564 316.258 322.683 316.688 321.564C317.126 320.437 317.345 319.146 317.345 317.69C317.345 316.25 317.13 314.979 316.7 313.875C316.269 312.764 315.643 311.895 314.821 311.269C314 310.635 313.002 310.318 311.828 310.318C310.623 310.318 309.605 310.647 308.776 311.304C307.954 311.954 307.328 312.834 306.897 313.945C306.475 315.057 306.264 316.305 306.264 317.69C306.264 319.091 306.479 320.355 306.909 321.482C307.34 322.609 307.966 323.505 308.787 324.17C309.617 324.828 310.631 325.156 311.828 325.156ZM341.153 327.07C339.674 327.07 338.378 326.679 337.267 325.896C336.156 325.113 335.287 324.022 334.661 322.621C334.043 321.22 333.733 319.588 333.733 317.726C333.733 315.871 334.043 314.247 334.661 312.854C335.287 311.453 336.16 310.365 337.279 309.59C338.398 308.808 339.701 308.416 341.188 308.416C342.284 308.416 343.195 308.612 343.923 309.003C344.651 309.387 345.234 309.864 345.672 310.435C346.111 311.007 346.451 311.562 346.694 312.102H346.881V302.652H348.983V326.694H346.94V323.349H346.694C346.451 323.896 346.107 324.46 345.661 325.039C345.214 325.61 344.624 326.092 343.888 326.483C343.16 326.874 342.248 327.07 341.153 327.07ZM341.399 325.156C342.565 325.156 343.559 324.84 344.381 324.206C345.203 323.564 345.829 322.683 346.259 321.564C346.698 320.437 346.917 319.146 346.917 317.69C346.917 316.25 346.701 314.979 346.271 313.875C345.841 312.764 345.214 311.895 344.393 311.269C343.571 310.635 342.573 310.318 341.399 310.318C340.194 310.318 339.177 310.647 338.347 311.304C337.525 311.954 336.899 312.834 336.469 313.945C336.046 315.057 335.835 316.305 335.835 317.69C335.835 319.091 336.05 320.355 336.48 321.482C336.911 322.609 337.537 323.505 338.359 324.17C339.188 324.828 340.202 325.156 341.399 325.156ZM362.225 327.07C360.542 327.07 359.086 326.679 357.858 325.896C356.629 325.106 355.678 324.014 355.005 322.621C354.34 321.22 354.007 319.608 354.007 317.784C354.007 315.969 354.34 314.356 355.005 312.948C355.678 311.531 356.605 310.424 357.787 309.625C358.977 308.819 360.35 308.416 361.908 308.416C362.886 308.416 363.829 308.596 364.737 308.956C365.645 309.308 366.459 309.852 367.179 310.588C367.907 311.316 368.482 312.235 368.904 313.347C369.327 314.45 369.538 315.757 369.538 317.268V318.301H355.451V316.458H367.402C367.402 315.299 367.167 314.259 366.697 313.335C366.236 312.404 365.59 311.668 364.76 311.128C363.939 310.588 362.988 310.318 361.908 310.318C360.765 310.318 359.759 310.623 358.891 311.234C358.022 311.844 357.341 312.65 356.848 313.652C356.363 314.654 356.116 315.749 356.109 316.939V318.042C356.109 319.475 356.355 320.727 356.848 321.799C357.349 322.863 358.057 323.689 358.973 324.276C359.889 324.863 360.973 325.156 362.225 325.156C363.078 325.156 363.825 325.023 364.467 324.757C365.116 324.491 365.66 324.135 366.099 323.689C366.545 323.235 366.881 322.738 367.108 322.198L369.092 322.844C368.818 323.603 368.368 324.303 367.742 324.945C367.124 325.587 366.349 326.103 365.418 326.495C364.494 326.878 363.43 327.07 362.225 327.07ZM386.258 312.619L384.344 313.159C384.157 312.619 383.891 312.13 383.546 311.692C383.202 311.253 382.752 310.905 382.196 310.647C381.648 310.388 380.967 310.259 380.154 310.259C378.933 310.259 377.931 310.549 377.148 311.128C376.366 311.707 375.974 312.455 375.974 313.37C375.974 314.145 376.24 314.775 376.773 315.26C377.313 315.738 378.142 316.117 379.261 316.399L381.985 317.068C383.495 317.436 384.626 318.019 385.378 318.817C386.137 319.616 386.516 320.617 386.516 321.823C386.516 322.84 386.235 323.744 385.671 324.534C385.108 325.325 384.321 325.947 383.311 326.401C382.31 326.847 381.147 327.07 379.825 327.07C378.064 327.07 376.612 326.675 375.47 325.884C374.327 325.086 373.595 323.936 373.274 322.433L375.282 321.94C375.54 323.012 376.045 323.822 376.796 324.37C377.555 324.918 378.553 325.192 379.79 325.192C381.175 325.192 382.282 324.883 383.112 324.264C383.941 323.638 384.356 322.856 384.356 321.916C384.356 321.189 384.114 320.578 383.628 320.085C383.143 319.584 382.408 319.216 381.421 318.982L378.475 318.277C376.91 317.902 375.751 317.307 375 316.493C374.249 315.679 373.873 314.669 373.873 313.464C373.873 312.47 374.143 311.598 374.683 310.846C375.223 310.087 375.967 309.492 376.914 309.062C377.86 308.631 378.941 308.416 380.154 308.416C381.805 308.416 383.124 308.792 384.11 309.543C385.104 310.287 385.82 311.312 386.258 312.619ZM391.115 326.694V308.663H393.216V326.694H391.115ZM392.183 305.564C391.753 305.564 391.385 305.419 391.08 305.129C390.775 304.832 390.622 304.476 390.622 304.061C390.622 303.646 390.775 303.294 391.08 303.004C391.385 302.707 391.753 302.558 392.183 302.558C392.614 302.558 392.982 302.707 393.287 303.004C393.592 303.294 393.745 303.646 393.745 304.061C393.745 304.476 393.592 304.832 393.287 305.129C392.982 305.419 392.614 305.564 392.183 305.564ZM405.622 333.832C404.393 333.832 403.317 333.671 402.394 333.351C401.47 333.037 400.691 332.607 400.058 332.059C399.424 331.511 398.931 330.897 398.578 330.216L400.292 329.089C400.551 329.543 400.895 329.989 401.325 330.427C401.764 330.866 402.331 331.23 403.028 331.519C403.732 331.809 404.597 331.954 405.622 331.954C407.218 331.954 408.506 331.554 409.484 330.756C410.47 329.958 410.963 328.717 410.963 327.035V322.973H410.775C410.533 323.521 410.185 324.069 409.731 324.616C409.277 325.156 408.682 325.606 407.946 325.966C407.218 326.327 406.315 326.507 405.235 326.507C403.795 326.507 402.515 326.15 401.396 325.438C400.284 324.726 399.408 323.709 398.766 322.386C398.132 321.056 397.815 319.471 397.815 317.632C397.815 315.808 398.124 314.204 398.743 312.818C399.369 311.433 400.241 310.353 401.361 309.578C402.48 308.804 403.783 308.416 405.27 308.416C406.373 308.416 407.289 308.612 408.017 309.003C408.745 309.387 409.328 309.864 409.766 310.435C410.212 311.007 410.56 311.562 410.811 312.102H411.022V308.663H413.065V327.164C413.065 328.69 412.74 329.946 412.09 330.932C411.441 331.918 410.556 332.646 409.437 333.116C408.318 333.593 407.046 333.832 405.622 333.832ZM405.481 324.593C406.639 324.593 407.629 324.315 408.451 323.76C409.273 323.196 409.903 322.39 410.341 321.341C410.779 320.293 410.999 319.044 410.999 317.596C410.999 316.188 410.783 314.939 410.353 313.852C409.922 312.756 409.296 311.895 408.475 311.269C407.661 310.635 406.663 310.318 405.481 310.318C404.276 310.318 403.258 310.643 402.429 311.292C401.599 311.942 400.973 312.818 400.551 313.922C400.128 315.018 399.917 316.242 399.917 317.596C399.917 318.974 400.132 320.191 400.562 321.247C400.993 322.296 401.623 323.118 402.452 323.713C403.282 324.3 404.291 324.593 405.481 324.593ZM420.686 315.425V326.694H418.597V308.663H420.628V311.492H420.816C421.238 310.568 421.896 309.829 422.788 309.273C423.688 308.71 424.799 308.428 426.122 308.428C427.335 308.428 428.399 308.682 429.315 309.191C430.238 309.692 430.954 310.432 431.463 311.41C431.98 312.388 432.238 313.589 432.238 315.014V326.694H430.148V315.143C430.148 313.664 429.733 312.494 428.904 311.633C428.082 310.772 426.979 310.341 425.593 310.341C424.646 310.341 423.805 310.545 423.069 310.952C422.334 311.359 421.751 311.946 421.32 312.713C420.898 313.472 420.686 314.376 420.686 315.425ZM98.4399 348.663V350.482H89.5767V348.663H98.4399ZM92.3472 366.694V346.021C92.3472 345.051 92.5702 344.233 93.0163 343.568C93.4702 342.903 94.0611 342.398 94.7889 342.054C95.5168 341.709 96.2877 341.537 97.1016 341.537C97.6494 341.537 98.1033 341.584 98.4633 341.678C98.8312 341.764 99.1207 341.85 99.3321 341.936L98.7216 343.767C98.5651 343.721 98.3733 343.666 98.1464 343.603C97.9194 343.541 97.6338 343.509 97.2894 343.509C96.3816 343.509 95.6811 343.764 95.1881 344.272C94.695 344.781 94.4485 345.509 94.4485 346.456L94.4368 366.694H92.3472ZM108.876 367.07C107.319 367.07 105.941 366.675 104.744 365.884C103.554 365.094 102.623 364.002 101.95 362.609C101.277 361.208 100.94 359.592 100.94 357.761C100.94 355.914 101.277 354.29 101.95 352.889C102.623 351.48 103.554 350.385 104.744 349.602C105.941 348.811 107.319 348.416 108.876 348.416C110.434 348.416 111.807 348.811 112.997 349.602C114.186 350.392 115.117 351.488 115.791 352.889C116.471 354.29 116.812 355.914 116.812 357.761C116.812 359.592 116.475 361.208 115.802 362.609C115.129 364.002 114.194 365.094 112.997 365.884C111.807 366.675 110.434 367.07 108.876 367.07ZM108.876 365.156C110.128 365.156 111.189 364.82 112.057 364.147C112.926 363.474 113.584 362.578 114.03 361.459C114.484 360.339 114.711 359.107 114.711 357.761C114.711 356.415 114.484 355.178 114.03 354.051C113.584 352.924 112.926 352.02 112.057 351.339C111.189 350.658 110.128 350.318 108.876 350.318C107.632 350.318 106.571 350.658 105.695 351.339C104.826 352.02 104.165 352.924 103.711 354.051C103.265 355.178 103.042 356.415 103.042 357.761C103.042 359.107 103.265 360.339 103.711 361.459C104.165 362.578 104.826 363.474 105.695 364.147C106.563 364.82 107.624 365.156 108.876 365.156ZM121.399 366.694V348.663H123.43V351.433H123.583C123.943 350.525 124.569 349.794 125.461 349.238C126.361 348.675 127.378 348.393 128.513 348.393C128.685 348.393 128.877 348.397 129.088 348.405C129.3 348.412 129.476 348.42 129.616 348.428V350.553C129.523 350.537 129.358 350.514 129.123 350.482C128.889 350.451 128.634 350.435 128.36 350.435C127.421 350.435 126.584 350.635 125.848 351.034C125.12 351.425 124.545 351.969 124.123 352.666C123.7 353.362 123.489 354.157 123.489 355.049V366.694H121.399ZM142.48 366.694V348.663H144.511V351.433H144.699C145.059 350.502 145.657 349.77 146.495 349.238C147.34 348.698 148.353 348.428 149.535 348.428C150.78 348.428 151.801 348.721 152.599 349.308C153.405 349.888 154.008 350.686 154.407 351.703H154.56C154.967 350.702 155.628 349.907 156.544 349.32C157.467 348.725 158.586 348.428 159.901 348.428C161.576 348.428 162.898 348.956 163.869 350.013C164.839 351.062 165.324 352.595 165.324 354.615V366.694H163.235V354.615C163.235 353.19 162.871 352.122 162.143 351.41C161.415 350.698 160.457 350.341 159.267 350.341C157.89 350.341 156.829 350.764 156.086 351.609C155.342 352.455 154.97 353.527 154.97 354.826V366.694H152.834V354.427C152.834 353.206 152.493 352.22 151.813 351.468C151.132 350.717 150.173 350.341 148.936 350.341C148.107 350.341 147.359 350.545 146.694 350.952C146.037 351.359 145.516 351.926 145.133 352.654C144.757 353.374 144.569 354.204 144.569 355.143V366.694H142.48ZM182.314 359.803V348.663H184.404V366.694H182.314V363.701H182.15C181.727 364.624 181.058 365.395 180.142 366.013C179.227 366.624 178.108 366.929 176.785 366.929C175.635 366.929 174.613 366.679 173.721 366.178C172.829 365.669 172.128 364.926 171.62 363.947C171.111 362.969 170.857 361.768 170.857 360.343V348.663H172.946V360.214C172.946 361.623 173.361 362.758 174.191 363.619C175.02 364.472 176.085 364.898 177.384 364.898C178.198 364.898 178.98 364.703 179.732 364.311C180.483 363.92 181.101 363.349 181.586 362.597C182.072 361.838 182.314 360.907 182.314 359.803ZM202.051 352.619L200.137 353.159C199.95 352.619 199.683 352.13 199.339 351.692C198.995 351.253 198.545 350.905 197.989 350.647C197.441 350.388 196.76 350.259 195.946 350.259C194.726 350.259 193.724 350.549 192.941 351.128C192.159 351.707 191.767 352.455 191.767 353.37C191.767 354.145 192.033 354.775 192.566 355.26C193.106 355.738 193.935 356.117 195.054 356.399L197.778 357.068C199.288 357.436 200.419 358.019 201.17 358.817C201.93 359.616 202.309 360.617 202.309 361.823C202.309 362.84 202.027 363.744 201.464 364.534C200.9 365.325 200.114 365.947 199.104 366.401C198.103 366.847 196.94 367.07 195.618 367.07C193.857 367.07 192.405 366.675 191.262 365.884C190.12 365.086 189.388 363.936 189.067 362.433L191.075 361.94C191.333 363.012 191.838 363.822 192.589 364.37C193.348 364.918 194.346 365.192 195.583 365.192C196.968 365.192 198.075 364.883 198.905 364.264C199.734 363.638 200.149 362.856 200.149 361.916C200.149 361.189 199.906 360.578 199.421 360.085C198.936 359.584 198.2 359.216 197.214 358.982L194.268 358.277C192.702 357.902 191.544 357.307 190.793 356.493C190.042 355.679 189.666 354.669 189.666 353.464C189.666 352.47 189.936 351.598 190.476 350.846C191.016 350.087 191.759 349.492 192.706 349.062C193.653 348.631 194.733 348.416 195.946 348.416C197.598 348.416 198.916 348.792 199.903 349.543C200.897 350.287 201.613 351.312 202.051 352.619ZM206.908 366.694V348.663H209.009V366.694H206.908ZM207.976 345.564C207.546 345.564 207.178 345.419 206.873 345.129C206.568 344.832 206.415 344.476 206.415 344.061C206.415 343.646 206.568 343.294 206.873 343.004C207.178 342.707 207.546 342.558 207.976 342.558C208.407 342.558 208.775 342.707 209.08 343.004C209.385 343.294 209.538 343.646 209.538 344.061C209.538 344.476 209.385 344.832 209.08 345.129C208.775 345.419 208.407 345.564 207.976 345.564ZM221.579 367.07C219.967 367.07 218.562 366.667 217.365 365.861C216.175 365.055 215.252 363.951 214.594 362.55C213.937 361.149 213.608 359.553 213.608 357.761C213.608 355.953 213.941 354.345 214.606 352.936C215.279 351.527 216.21 350.424 217.4 349.625C218.59 348.819 219.971 348.416 221.544 348.416C222.749 348.416 223.841 348.651 224.819 349.121C225.798 349.582 226.604 350.236 227.238 351.081C227.879 351.918 228.282 352.897 228.447 354.016H226.334C226.114 352.998 225.586 352.13 224.749 351.41C223.919 350.682 222.863 350.318 221.579 350.318C220.429 350.318 219.411 350.631 218.527 351.257C217.643 351.875 216.95 352.74 216.449 353.852C215.956 354.955 215.71 356.235 215.71 357.69C215.71 359.154 215.952 360.449 216.437 361.576C216.923 362.695 217.603 363.572 218.48 364.206C219.364 364.84 220.397 365.156 221.579 365.156C222.377 365.156 223.105 365.008 223.763 364.71C224.428 364.405 224.984 363.975 225.43 363.419C225.884 362.863 226.189 362.202 226.345 361.435H228.458C228.302 362.523 227.915 363.493 227.296 364.346C226.686 365.192 225.891 365.857 224.913 366.342C223.943 366.827 222.831 367.07 221.579 367.07ZM249.337 348.663V350.482H240.732V348.663H249.337ZM243.42 344.343H245.521V361.987C245.521 362.738 245.651 363.329 245.909 363.76C246.167 364.182 246.504 364.483 246.918 364.663C247.333 364.836 247.775 364.922 248.245 364.922C248.519 364.922 248.754 364.906 248.949 364.875C249.145 364.836 249.317 364.796 249.466 364.757L249.912 366.647C249.708 366.726 249.458 366.796 249.161 366.859C248.863 366.929 248.495 366.964 248.057 366.964C247.29 366.964 246.551 366.796 245.838 366.46C245.134 366.123 244.555 365.622 244.101 364.957C243.647 364.292 243.42 363.466 243.42 362.48V344.343ZM261.179 367.07C259.496 367.07 258.04 366.679 256.812 365.896C255.583 365.106 254.632 364.014 253.959 362.621C253.294 361.22 252.961 359.608 252.961 357.784C252.961 355.969 253.294 354.356 253.959 352.948C254.632 351.531 255.56 350.424 256.741 349.625C257.931 348.819 259.304 348.416 260.862 348.416C261.84 348.416 262.783 348.596 263.691 348.956C264.599 349.308 265.413 349.852 266.133 350.588C266.861 351.316 267.436 352.235 267.858 353.347C268.281 354.45 268.492 355.757 268.492 357.268V358.301H254.405V356.458H266.356C266.356 355.299 266.121 354.259 265.651 353.335C265.19 352.404 264.544 351.668 263.714 351.128C262.893 350.588 261.942 350.318 260.862 350.318C259.719 350.318 258.714 350.623 257.845 351.234C256.976 351.844 256.295 352.65 255.802 353.652C255.317 354.654 255.07 355.749 255.063 356.939V358.042C255.063 359.475 255.309 360.727 255.802 361.799C256.303 362.863 257.011 363.689 257.927 364.276C258.843 364.863 259.927 365.156 261.179 365.156C262.032 365.156 262.779 365.023 263.421 364.757C264.071 364.491 264.614 364.135 265.053 363.689C265.499 363.235 265.835 362.738 266.062 362.198L268.046 362.844C267.772 363.603 267.322 364.303 266.696 364.945C266.078 365.587 265.303 366.103 264.372 366.495C263.448 366.878 262.384 367.07 261.179 367.07ZM280.141 367.07C278.528 367.07 277.124 366.667 275.926 365.861C274.737 365.055 273.813 363.951 273.156 362.55C272.498 361.149 272.17 359.553 272.17 357.761C272.17 355.953 272.502 354.345 273.168 352.936C273.841 351.527 274.772 350.424 275.961 349.625C277.151 348.819 278.532 348.416 280.105 348.416C281.311 348.416 282.402 348.651 283.381 349.121C284.359 349.582 285.165 350.236 285.799 351.081C286.441 351.918 286.844 352.897 287.008 354.016H284.895C284.676 352.998 284.148 352.13 283.31 351.41C282.481 350.682 281.424 350.318 280.141 350.318C278.99 350.318 277.973 350.631 277.088 351.257C276.204 351.875 275.511 352.74 275.011 353.852C274.518 354.955 274.271 356.235 274.271 357.69C274.271 359.154 274.514 360.449 274.999 361.576C275.484 362.695 276.165 363.572 277.041 364.206C277.926 364.84 278.959 365.156 280.141 365.156C280.939 365.156 281.667 365.008 282.324 364.71C282.989 364.405 283.545 363.975 283.991 363.419C284.445 362.863 284.75 362.202 284.907 361.435H287.02C286.863 362.523 286.476 363.493 285.858 364.346C285.247 365.192 284.453 365.857 283.475 366.342C282.504 366.827 281.393 367.07 280.141 367.07ZM293.588 355.425V366.694H291.498V342.652H293.588V351.492H293.776C294.198 350.561 294.852 349.817 295.736 349.261C296.628 348.706 297.755 348.428 299.117 348.428C300.338 348.428 301.41 348.678 302.334 349.179C303.257 349.68 303.977 350.42 304.494 351.398C305.01 352.376 305.269 353.582 305.269 355.014V366.694H303.167V355.143C303.167 353.656 302.752 352.486 301.923 351.633C301.101 350.772 299.99 350.341 298.589 350.341C297.626 350.341 296.769 350.545 296.018 350.952C295.267 351.359 294.672 351.946 294.234 352.713C293.803 353.472 293.588 354.376 293.588 355.425ZM312.861 355.425V366.694H310.771V348.663H312.802V351.492H312.99C313.413 350.568 314.07 349.829 314.962 349.273C315.862 348.71 316.974 348.428 318.296 348.428C319.509 348.428 320.574 348.682 321.489 349.191C322.413 349.692 323.129 350.432 323.638 351.41C324.154 352.388 324.412 353.589 324.412 355.014V366.694H322.323V355.143C322.323 353.664 321.908 352.494 321.078 351.633C320.257 350.772 319.153 350.341 317.768 350.341C316.821 350.341 315.98 350.545 315.244 350.952C314.508 351.359 313.925 351.946 313.495 352.713C313.072 353.472 312.861 354.376 312.861 355.425ZM336.924 367.07C335.366 367.07 333.989 366.675 332.791 365.884C331.602 365.094 330.67 364.002 329.997 362.609C329.324 361.208 328.988 359.592 328.988 357.761C328.988 355.914 329.324 354.29 329.997 352.889C330.67 351.48 331.602 350.385 332.791 349.602C333.989 348.811 335.366 348.416 336.924 348.416C338.481 348.416 339.855 348.811 341.044 349.602C342.234 350.392 343.165 351.488 343.838 352.889C344.519 354.29 344.859 355.914 344.859 357.761C344.859 359.592 344.523 361.208 343.85 362.609C343.177 364.002 342.242 365.094 341.044 365.884C339.855 366.675 338.481 367.07 336.924 367.07ZM336.924 365.156C338.176 365.156 339.236 364.82 340.105 364.147C340.974 363.474 341.631 362.578 342.077 361.459C342.531 360.339 342.758 359.107 342.758 357.761C342.758 356.415 342.531 355.178 342.077 354.051C341.631 352.924 340.974 352.02 340.105 351.339C339.236 350.658 338.176 350.318 336.924 350.318C335.679 350.318 334.619 350.658 333.742 351.339C332.874 352.02 332.212 352.924 331.758 354.051C331.312 355.178 331.089 356.415 331.089 357.761C331.089 359.107 331.312 360.339 331.758 361.459C332.212 362.578 332.874 363.474 333.742 364.147C334.611 364.82 335.671 365.156 336.924 365.156ZM351.536 342.652V366.694H349.447V342.652H351.536ZM364.074 367.07C362.516 367.07 361.139 366.675 359.941 365.884C358.752 365.094 357.821 364.002 357.147 362.609C356.474 361.208 356.138 359.592 356.138 357.761C356.138 355.914 356.474 354.29 357.147 352.889C357.821 351.48 358.752 350.385 359.941 349.602C361.139 348.811 362.516 348.416 364.074 348.416C365.631 348.416 367.005 348.811 368.194 349.602C369.384 350.392 370.315 351.488 370.988 352.889C371.669 354.29 372.009 355.914 372.009 357.761C372.009 359.592 371.673 361.208 371 362.609C370.327 364.002 369.392 365.094 368.194 365.884C367.005 366.675 365.631 367.07 364.074 367.07ZM364.074 365.156C365.326 365.156 366.386 364.82 367.255 364.147C368.124 363.474 368.781 362.578 369.227 361.459C369.681 360.339 369.908 359.107 369.908 357.761C369.908 356.415 369.681 355.178 369.227 354.051C368.781 352.924 368.124 352.02 367.255 351.339C366.386 350.658 365.326 350.318 364.074 350.318C362.829 350.318 361.769 350.658 360.892 351.339C360.024 352.02 359.362 352.924 358.908 354.051C358.462 355.178 358.239 356.415 358.239 357.761C358.239 359.107 358.462 360.339 358.908 361.459C359.362 362.578 360.024 363.474 360.892 364.147C361.761 364.82 362.821 365.156 364.074 365.156ZM383.476 373.832C382.247 373.832 381.171 373.671 380.247 373.351C379.324 373.037 378.545 372.607 377.911 372.059C377.277 371.511 376.784 370.897 376.432 370.216L378.146 369.089C378.404 369.543 378.749 369.989 379.179 370.427C379.617 370.866 380.185 371.23 380.881 371.519C381.586 371.809 382.451 371.954 383.476 371.954C385.072 371.954 386.36 371.554 387.338 370.756C388.324 369.958 388.817 368.717 388.817 367.035V362.973H388.629C388.387 363.521 388.038 364.069 387.585 364.616C387.131 365.156 386.536 365.606 385.8 365.966C385.072 366.327 384.168 366.507 383.088 366.507C381.648 366.507 380.369 366.15 379.25 365.438C378.138 364.726 377.262 363.709 376.62 362.386C375.986 361.056 375.669 359.471 375.669 357.632C375.669 355.808 375.978 354.204 376.597 352.818C377.223 351.433 378.095 350.353 379.214 349.578C380.334 348.804 381.637 348.416 383.124 348.416C384.227 348.416 385.143 348.612 385.871 349.003C386.598 349.387 387.181 349.864 387.62 350.435C388.066 351.007 388.414 351.562 388.665 352.102H388.876V348.663H390.919V367.164C390.919 368.69 390.594 369.946 389.944 370.932C389.295 371.918 388.41 372.646 387.291 373.116C386.172 373.593 384.9 373.832 383.476 373.832ZM383.335 364.593C384.493 364.593 385.483 364.315 386.305 363.76C387.127 363.196 387.757 362.39 388.195 361.341C388.633 360.293 388.852 359.044 388.852 357.596C388.852 356.188 388.637 354.939 388.207 353.852C387.776 352.756 387.15 351.895 386.328 351.269C385.515 350.635 384.517 350.318 383.335 350.318C382.13 350.318 381.112 350.643 380.283 351.292C379.453 351.942 378.827 352.818 378.404 353.922C377.982 355.018 377.77 356.242 377.77 357.596C377.77 358.974 377.986 360.191 378.416 361.247C378.847 362.296 379.477 363.118 380.306 363.713C381.136 364.3 382.145 364.593 383.335 364.593ZM397.906 373.456C397.492 373.456 397.104 373.417 396.744 373.339C396.384 373.261 396.098 373.174 395.887 373.081L396.451 371.237C397.163 371.457 397.797 371.535 398.352 371.472C398.908 371.417 399.401 371.167 399.832 370.721C400.262 370.283 400.645 369.61 400.982 368.702L401.639 366.87L395.007 348.663H397.272L402.625 363.936H402.79L408.143 348.663H410.409L402.778 369.547C402.457 370.416 402.062 371.14 401.592 371.719C401.123 372.306 400.579 372.74 399.961 373.022C399.35 373.311 398.665 373.456 397.906 373.456Z" fill="#2B2B2B"/>
</svg>
