<svg width="278" height="98" viewBox="0 0 278 98" fill="none" xmlns="http://www.w3.org/2000/svg">
<path d="M12.321 34.5548L12.6748 48.7061C12.6748 51.6778 12.2739 54.2958 11.472 56.56C10.7172 58.8714 9.7738 60.5932 8.6417 61.7253C6.33032 64.131 4.30197 65.4989 2.55664 65.8291L1.35378 66.1122C0.646218 66.1122 0.292435 65.8999 0.292435 65.4754L0.646218 64.414C4.0897 59.6497 5.81144 47.9513 5.81144 29.3188C5.81144 27.6206 5.78786 26.347 5.74068 25.4979C4.75009 25.4979 3.7595 25.5687 2.76891 25.7102H2.69816C2.17927 25.7102 1.91983 25.4508 1.91983 24.9319L2.1321 22.2431C2.17927 21.8186 2.50947 21.6063 3.12269 21.6063H5.66993V16.8657L5.81144 10.1438C5.81144 9.81359 5.85861 9.45981 5.95295 9.08244C6.09447 8.6579 6.61335 8.04468 7.5096 7.24277C8.40585 6.39369 9.72663 5.63896 11.472 4.97856C13.2173 4.271 14.7032 3.91722 15.9296 3.91722C17.2032 3.91722 17.84 4.29458 17.84 5.04932C17.84 5.33235 17.6278 5.5682 17.2032 5.75689C15.8353 6.18142 14.7032 7.40787 13.8069 9.43622C12.9578 11.4174 12.5333 14.8137 12.5333 19.6252V21.6063C14.939 21.512 16.5193 21.3941 17.274 21.2526C17.6042 21.2526 17.7693 21.5356 17.7693 22.1016C17.7693 22.6677 17.5098 23.3752 16.991 24.2243C16.5193 25.0262 15.906 25.4508 15.1513 25.4979C14.4437 25.4979 13.5475 25.4744 12.4626 25.4272C12.3682 29.0122 12.321 32.0547 12.321 34.5548ZM24.3601 25.5687C23.1337 25.6159 22.2374 25.663 21.6714 25.7102C21.1525 25.7102 20.8931 25.5687 20.8931 25.2857C20.8931 25.0026 21.0346 24.7196 21.3176 24.4366C24.3366 21.6535 29.431 20.262 36.601 20.262C39.0539 20.262 40.9879 20.4742 42.403 20.8988L43.1106 21.111C43.6767 21.3469 43.9597 21.6063 43.9597 21.8894C43.9597 22.1252 43.7946 22.3139 43.4644 22.4554C42.1908 22.8328 40.9643 23.446 39.7851 24.2951C38.6058 25.097 38.0161 25.663 38.0161 25.9932L38.4407 26.4885C39.9502 27.3376 41.1058 28.682 41.9078 30.5217C42.7568 32.3613 43.2285 33.9887 43.3229 35.4039L43.4644 37.5973C43.4644 42.2672 42.1672 46.1117 39.5728 49.1306C36.9784 52.1496 33.4406 53.659 28.9593 53.659C26.6951 53.659 24.7375 53.2581 23.0865 52.4562C21.4355 51.6543 20.2091 50.758 19.4072 49.7674C18.6525 48.7297 18.0392 47.574 17.5675 46.3004C17.0015 44.555 16.7184 42.7625 16.7184 40.9229C16.7184 39.036 17.0251 37.1492 17.6383 35.2623C18.2987 33.3755 19.0298 31.984 19.8317 31.0877C20.6808 30.1915 21.6242 29.4603 22.662 28.8943C23.9828 28.1867 25.0441 27.8329 25.846 27.8329C26.6479 27.8329 27.0489 27.998 27.0489 28.3282L26.6244 29.0358C25.5866 30.2622 24.8319 31.866 24.3601 33.8472C23.9356 35.8284 23.7233 37.5973 23.7233 39.1539C23.7233 40.6634 23.912 42.1729 24.2894 43.6824C24.6668 45.1918 25.0913 46.3239 25.563 47.0787C26.0347 47.7862 26.5772 48.3287 27.1904 48.7061C28.0867 49.2721 29.0301 49.5551 30.0207 49.5551C31.0113 49.5551 31.9783 49.1778 32.9217 48.423C33.8651 47.6211 34.5491 46.5834 34.9736 45.3098C35.8227 42.9512 36.2472 40.5219 36.2472 38.0218C36.2472 34.0595 35.2331 30.9934 33.2047 28.8235C31.2235 26.6536 28.2753 25.5687 24.3601 25.5687ZM68.028 33.2812L68.311 35.7576C68.311 36.6539 67.4619 37.102 65.7637 37.102C62.3203 37.102 60.5985 35.8048 60.5985 33.2104C60.5985 32.5972 60.7636 31.7481 61.0938 30.6632C61.424 29.5782 61.5891 28.6348 61.5891 27.8329C61.5891 27.031 61.3533 26.347 60.8815 25.781C60.4098 25.1677 59.7259 24.8611 58.8296 24.8611C57.9334 24.8611 57.155 25.1913 56.4946 25.8517C55.8814 26.4649 55.5041 27.1018 55.3625 27.7622L55.0795 28.7527C54.7965 30.215 54.655 32.6679 54.655 36.1114C54.655 39.5077 54.7021 42.1965 54.7965 44.1777C54.8908 46.1117 54.9852 47.456 55.0795 48.2108C55.1739 48.9183 55.221 49.3429 55.221 49.4844C55.221 50.6637 54.4899 51.6071 53.0276 52.3147C51.5653 53.0694 50.103 53.4468 48.6407 53.4468C47.1784 53.4468 46.4472 53.1401 46.4472 52.5269L46.801 50.3335C47.4614 46.2296 47.7916 40.8757 47.7916 34.2717C47.7916 27.6678 47.5557 23.1866 47.084 20.828C47.084 20.262 47.5793 19.9789 48.5699 19.9789C51.1172 19.9789 52.8153 20.8516 53.6644 22.5969C53.7116 22.7856 53.7823 22.88 53.8767 22.88C54.0182 22.88 54.3484 22.6677 54.8672 22.2431C56.4239 20.9695 58.2636 20.3327 60.3863 20.3327C61.707 20.3327 63.0278 20.5922 64.3486 21.111C67.0374 22.196 68.3817 24.4602 68.3817 27.9037L68.028 33.2812ZM87.5899 52.6684C88.2503 49.3665 88.5805 44.7437 88.5805 38.8002C88.5805 32.8094 88.5569 29.2716 88.5097 28.1867C88.4626 27.1018 88.1324 26.2291 87.5192 25.5687C86.9059 24.9083 86.3635 24.5309 85.8918 24.4366C85.4672 24.3423 84.854 24.2951 84.0521 24.2951C83.2502 24.2951 82.4719 24.6725 81.7171 25.4272C80.9624 26.1348 80.5143 26.8659 80.3727 27.6206L80.0897 28.7527C79.9482 30.1679 79.8775 33.3047 79.8775 38.1634C79.8775 43.022 79.9718 46.0881 80.1605 47.3617C80.3963 48.5881 80.5143 49.4136 80.5143 49.8382C80.5143 50.2627 80.3256 50.6873 79.9482 51.1118C78.3444 52.8099 76.0802 53.659 73.1556 53.659C72.1178 53.659 71.5989 53.3524 71.5989 52.7392C72.5424 47.0787 73.0141 39.8615 73.0141 31.0877C73.0141 27.8329 72.9433 25.6395 72.8018 24.5074L72.5188 22.2431C72.4716 21.7243 72.3773 21.1582 72.2358 20.545C72.2358 19.9789 72.9669 19.6959 74.4292 19.6959C76.5991 19.6959 78.0378 20.4978 78.7454 22.1016C78.7925 22.2903 78.8869 22.3847 79.0284 22.3847C79.1699 22.3847 79.5001 22.196 80.019 21.8186C81.5756 20.5922 83.6747 19.9789 86.3163 19.9789C87.8258 19.9789 89.3117 20.262 90.774 20.828C92.2363 21.3941 93.2504 22.1488 93.8165 23.0922C93.8637 23.1866 93.9344 23.2337 94.0288 23.2337C94.1231 23.2337 94.2646 23.1394 94.4533 22.9507C96.4345 20.9695 99.0053 19.9789 102.166 19.9789C106.364 19.9789 109.241 21.4884 110.798 24.5074C111.364 25.6866 111.647 27.1725 111.647 28.965C111.647 30.7575 111.506 33.3047 111.223 36.6067C110.94 39.9087 110.798 42.4323 110.798 44.1777C110.798 45.923 110.963 47.5032 111.293 48.9183C111.671 50.3335 112.024 51.3476 112.355 51.9609C112.732 52.5741 112.921 52.9279 112.921 53.0222C112.921 53.6354 112.26 53.9421 110.94 53.9421C107.685 53.9421 105.421 53.2817 104.147 51.9609C102.873 50.6401 102.237 48.9183 102.237 46.7956C102.237 44.6258 102.661 41.7248 103.51 38.0926C104.406 34.4133 104.854 31.6538 104.854 29.8141C104.854 26.0876 103.345 24.2243 100.326 24.2243C99.0525 24.2243 98.0383 24.6017 97.2835 25.3564C96.5288 26.1112 96.0807 26.8659 95.9392 27.6206L95.7977 28.7527C95.609 30.9226 95.5146 33.5406 95.5146 36.6067C95.5146 39.6728 95.5618 42.0785 95.6561 43.8239C95.7505 45.522 95.8448 46.8664 95.9392 47.857C96.0335 48.8004 96.0807 49.3665 96.0807 49.5551C96.0807 50.8759 95.2552 51.8901 93.6042 52.5977C91.9532 53.3052 90.3494 53.659 88.7928 53.659C87.9909 53.659 87.5899 53.3288 87.5899 52.6684ZM132.142 52.9474C129.428 52.9474 126.974 52.3444 124.78 51.1383C122.602 49.9155 120.869 48.2823 119.579 46.2386C118.306 44.1783 117.669 41.8917 117.669 39.3791C117.669 37.838 117.954 36.3974 118.523 35.0573C119.093 33.7005 120.023 32.3269 121.312 30.9365C122.602 29.5295 124.336 27.9884 126.514 26.3133L134.052 20.6849C136.48 18.792 138.206 17.0834 139.228 15.5591C140.266 14.0347 140.786 12.3596 140.786 10.5338C140.786 7.97084 139.973 5.8602 138.348 4.20185C136.74 2.52674 134.705 1.68919 132.242 1.68919C130.567 1.68919 129.018 2.11634 127.594 2.97065C126.187 3.82495 125.048 4.95565 124.177 6.36274C123.323 7.76983 122.895 9.29417 122.895 10.9358C122.895 12.0413 123.138 13.1302 123.624 14.2022C124.11 15.2576 124.855 16.4636 125.86 17.8205C126.865 19.1605 128.155 20.8189 129.73 22.7955L153.047 52.2439H151.037L128.524 23.8006C126.949 21.824 125.626 20.1237 124.554 18.6999C123.482 17.2593 122.669 15.936 122.116 14.7299C121.564 13.5071 121.287 12.2424 121.287 10.9358C121.287 8.99266 121.79 7.20029 122.795 5.55868C123.8 3.90033 125.132 2.577 126.79 1.58868C128.448 0.58362 130.266 0.0810882 132.242 0.0810882C134.186 0.0810882 135.919 0.533367 137.444 1.43792C138.985 2.34248 140.191 3.58206 141.062 5.15666C141.95 6.73126 142.394 8.52362 142.394 10.5338C142.394 12.5941 141.824 14.5038 140.685 16.2626C139.546 18.0215 137.67 19.9311 135.057 21.9915L127.519 27.6198C124.453 29.9817 122.309 32.017 121.086 33.7256C119.88 35.4342 119.277 37.3187 119.277 39.3791C119.277 41.5902 119.847 43.592 120.986 45.3843C122.125 47.1767 123.666 48.6089 125.609 49.681C127.552 50.7531 129.73 51.3058 132.142 51.3393C134.655 51.2891 136.916 50.8201 138.926 49.9322C140.936 49.0444 142.687 47.8216 144.178 46.2638C145.685 44.6892 146.925 42.8298 147.896 40.6857C148.885 38.5248 149.597 36.1461 150.032 33.5497L151.64 33.7507C151.406 35.1913 151.054 36.6235 150.585 38.0474C150.133 39.4712 149.588 40.828 148.952 42.1179C148.332 43.4077 147.653 44.5719 146.916 45.6105C146.732 45.8785 146.54 46.1381 146.338 46.3894C146.137 46.6407 145.928 46.8836 145.71 47.1181C144.002 48.9272 141.941 50.351 139.529 51.3896C137.117 52.4282 134.655 52.9474 132.142 52.9474ZM165.788 34.5548L166.142 48.7061C166.142 51.6778 165.741 54.2958 164.939 56.56C164.184 58.8714 163.241 60.5932 162.109 61.7253C159.797 64.131 157.769 65.4989 156.024 65.8291L154.821 66.1122C154.113 66.1122 153.759 65.8999 153.759 65.4754L154.113 64.414C157.557 59.6497 159.278 47.9513 159.278 29.3188C159.278 27.6206 159.255 26.347 159.208 25.4979C158.217 25.4979 157.226 25.5687 156.236 25.7102H156.165C155.646 25.7102 155.387 25.4508 155.387 24.9319L155.599 22.2431C155.646 21.8186 155.976 21.6063 156.59 21.6063H159.137V16.8657L159.278 10.1438C159.278 9.81359 159.326 9.45981 159.42 9.08244C159.561 8.6579 160.08 8.04468 160.977 7.24277C161.873 6.39369 163.194 5.63896 164.939 4.97856C166.684 4.271 168.17 3.91722 169.397 3.91722C170.67 3.91722 171.307 4.29458 171.307 5.04932C171.307 5.33235 171.095 5.5682 170.67 5.75689C169.302 6.18142 168.17 7.40787 167.274 9.43622C166.425 11.4174 166 14.8137 166 19.6252V21.6063C168.406 21.512 169.986 21.3941 170.741 21.2526C171.071 21.2526 171.236 21.5356 171.236 22.1016C171.236 22.6677 170.977 23.3752 170.458 24.2243C169.986 25.0262 169.373 25.4508 168.618 25.4979C167.911 25.4979 167.014 25.4744 165.93 25.4272C165.835 29.0122 165.788 32.0547 165.788 34.5548ZM195.908 31.017L195.766 40.0738C195.766 46.3475 196.45 50.1212 197.818 51.3948C198.007 51.5835 198.101 51.7958 198.101 52.0316C198.101 52.7392 196.568 53.093 193.502 53.093C190.483 53.093 188.879 52.1967 188.69 50.4042C188.643 49.9797 188.62 49.107 188.62 47.7862L188.903 36.4652C188.903 36.135 188.714 35.9699 188.337 35.9699C186.072 35.9699 183.95 36.6067 181.969 37.8803C179.987 39.1539 178.997 40.7813 178.997 42.7625C178.997 43.8003 179.28 44.673 179.846 45.3805C180.412 46.0881 181.096 46.4419 181.898 46.4419C182.747 46.4419 183.431 46.2768 183.95 45.9466C184.516 45.6164 184.846 45.4277 184.94 45.3805C185.742 45.4749 186.143 46.3239 186.143 47.9278C186.143 49.4844 185.412 50.758 183.95 51.7486C182.487 52.692 180.954 53.1637 179.351 53.1637C177.747 53.1637 176.355 52.8807 175.176 52.3147C174.044 51.7486 173.218 51.1118 172.699 50.4042C172.181 49.6967 171.756 48.8948 171.426 47.9985C171.096 46.9136 170.931 45.9702 170.931 45.1682C170.931 41.8663 171.968 39.2247 174.044 37.2435C176.119 35.2623 178.785 33.8472 182.039 32.9981C186.332 32.1491 188.572 31.3707 188.761 30.6632C188.903 30.1443 188.973 29.2716 188.973 28.0452C188.973 25.5451 187.7 24.2951 185.153 24.2951C184.068 24.2951 183.101 24.6489 182.252 25.3564C181.403 26.0168 180.978 26.8659 180.978 27.9037L181.403 29.6018C181.308 30.4037 180.459 30.8754 178.855 31.017L178.077 31.0877C176.662 31.0877 175.53 30.7339 174.681 30.0264C173.879 29.3188 173.478 28.3754 173.478 27.1961C173.478 26.4414 173.714 25.6159 174.185 24.7196C174.704 23.7762 175.341 23.0215 176.096 22.4554C176.851 21.8894 178.006 21.3941 179.563 20.9695C181.167 20.4978 182.7 20.262 184.162 20.262C185.624 20.262 186.756 20.3091 187.558 20.4035C188.36 20.4978 189.445 20.7337 190.813 21.111C192.228 21.4412 193.384 22.1016 194.28 23.0922C195.224 24.0828 195.719 25.1442 195.766 26.2763C195.86 27.3612 195.908 28.9414 195.908 31.017ZM214.342 20.4742C215.191 20.4742 215.946 20.5922 216.606 20.828C217.314 21.0167 217.691 21.111 217.738 21.111L218.163 20.7573L217.88 13.0448C217.785 11.724 217.502 10.5919 217.031 9.64849C216.559 8.70507 216.134 8.09185 215.757 7.80882L215.12 7.45504C214.837 7.26636 214.696 7.05409 214.696 6.81823C214.696 6.11067 215.781 5.28517 217.95 4.34175C220.167 3.39833 221.889 2.92662 223.116 2.92662C224.342 2.92662 225.003 3.18606 225.097 3.70494C225.333 5.30876 225.451 8.37487 225.451 12.9033C225.451 17.3845 225.333 21.795 225.097 26.1348C224.908 30.4745 224.814 35.4039 224.814 40.9229C224.814 46.3947 225.168 49.8382 225.875 51.2533C226.064 51.5835 226.158 51.8901 226.158 52.1731C226.158 52.8807 225.144 53.2345 223.116 53.2345C219.248 53.2345 217.314 52.3147 217.314 50.475C217.219 49.7202 217.172 48.5646 217.172 47.0079C217.172 45.4041 217.314 42.4559 217.597 38.1634C217.927 33.8236 218.092 30.4981 218.092 28.1867C218.092 25.8281 216.913 24.6489 214.554 24.6489C212.243 24.6489 210.474 26.0168 209.247 28.7527C208.021 31.4887 207.408 34.2246 207.408 36.9605C207.408 42.7625 208.87 45.6635 211.795 45.6635C212.219 45.6635 212.62 45.5928 212.997 45.4513C213.422 45.2626 213.681 45.1682 213.776 45.1682C214.153 45.1682 214.436 45.4041 214.625 45.8758C214.861 46.3475 214.979 46.8192 214.979 47.2909C214.979 48.8948 214.342 50.2627 213.068 51.3948C211.795 52.4798 210.238 53.0222 208.398 53.0222C205.568 53.0222 203.422 51.7958 201.959 49.3429C200.544 46.8428 199.837 43.7531 199.837 40.0738C199.837 35.4039 200.945 31.0641 203.162 27.0546C204.294 25.0734 205.827 23.4932 207.762 22.3139C209.696 21.0875 211.889 20.4742 214.342 20.4742ZM236.072 34.2717L236.143 36.0407C236.143 36.3237 236.331 36.4652 236.709 36.4652C238.218 36.3237 239.539 35.9463 240.671 35.3331C241.803 34.6727 242.652 33.9416 243.218 33.1396C244.35 31.3943 244.964 29.8848 245.058 28.6112L245.129 27.7622C245.129 25.2149 244.114 23.9413 242.086 23.9413C240.577 23.9413 239.35 24.6017 238.407 25.9225C236.85 27.998 236.072 30.7811 236.072 34.2717ZM251.497 43.6824C251.497 45.4749 251.119 47.0551 250.365 48.423C249.657 49.7438 248.832 50.7344 247.888 51.3948C246.992 52.008 245.931 52.5033 244.704 52.8807C243.147 53.3524 241.662 53.5883 240.246 53.5883C236.284 53.5883 233.36 52.1024 231.473 49.1306C229.586 46.1588 228.642 42.3852 228.642 37.8096C228.642 33.1868 229.798 29.0829 232.109 25.4979C234.468 21.9129 237.982 20.1205 242.652 20.1205C246.898 20.1205 249.775 21.6063 251.284 24.5781C251.898 25.7102 252.204 26.7951 252.204 27.8329C252.204 28.8235 252.157 29.6254 252.063 30.2386C251.968 30.8047 251.638 31.6773 251.072 32.8566C250.506 34.0359 249.751 35.0972 248.808 36.0407C247.865 36.9841 246.379 37.8803 244.35 38.7294C242.322 39.5785 239.94 40.1445 237.204 40.4276C236.827 40.4276 236.638 40.5927 236.638 40.9229C236.638 41.3474 236.779 41.9842 237.062 42.8333C237.393 43.6352 237.746 44.3192 238.124 44.8852C239.162 46.206 240.695 46.8664 242.723 46.8664C244.751 46.8664 246.473 46.206 247.888 44.8852C248.643 44.1777 249.256 43.305 249.728 42.2672C249.917 41.8899 250.152 41.7012 250.435 41.7012C250.766 41.7012 251.025 41.9606 251.214 42.4795C251.402 42.9984 251.497 43.3993 251.497 43.6824ZM276.29 33.2812L276.573 35.7576C276.573 36.6539 275.724 37.102 274.026 37.102C270.582 37.102 268.86 35.8048 268.86 33.2104C268.86 32.5972 269.025 31.7481 269.356 30.6632C269.686 29.5782 269.851 28.6348 269.851 27.8329C269.851 27.031 269.615 26.347 269.143 25.781C268.672 25.1677 267.988 24.8611 267.091 24.8611C266.195 24.8611 265.417 25.1913 264.756 25.8517C264.143 26.4649 263.766 27.1018 263.624 27.7622L263.341 28.7527C263.058 30.215 262.917 32.6679 262.917 36.1114C262.917 39.5077 262.964 42.1965 263.058 44.1777C263.153 46.1117 263.247 47.456 263.341 48.2108C263.436 48.9183 263.483 49.3429 263.483 49.4844C263.483 50.6637 262.752 51.6071 261.289 52.3147C259.827 53.0694 258.365 53.4468 256.902 53.4468C255.44 53.4468 254.709 53.1401 254.709 52.5269L255.063 50.3335C255.723 46.2296 256.053 40.8757 256.053 34.2717C256.053 27.6678 255.818 23.1866 255.346 20.828C255.346 20.262 255.841 19.9789 256.832 19.9789C259.379 19.9789 261.077 20.8516 261.926 22.5969C261.973 22.7856 262.044 22.88 262.138 22.88C262.28 22.88 262.61 22.6677 263.129 22.2431C264.686 20.9695 266.525 20.3327 268.648 20.3327C269.969 20.3327 271.29 20.5922 272.61 21.111C275.299 22.196 276.643 24.4602 276.643 27.9037L276.29 33.2812Z" fill="#2B2B2B"/>
<rect x="98.5" y="85.7561" width="27.3333" height="12" fill="#3B82F6"/>
<rect x="125.833" y="85.7561" width="27.3333" height="12" fill="#9EF0B9"/>
<rect x="153.167" y="85.7561" width="27.3333" height="12" fill="#FF6B57"/>
</svg>
